<?xml version="1.0" standalone="no"?>
<!DOCTYPE svg PUBLIC "-//W3C//DTD SVG 1.1//EN" "http://www.w3.org/Graphics/SVG/1.1/DTD/svg11.dtd" >
<!--
2013-9-30: Created.
-->
<svg>
<metadata>
Created by iconfont
</metadata>
<defs>

<font id="iconfont" horiz-adv-x="1024" >
  <font-face
    font-family="iconfont"
    font-weight="500"
    font-stretch="normal"
    units-per-em="1024"
    ascent="896"
    descent="-128"
  />
    <missing-glyph />
    
    <glyph glyph-name="x" unicode="x" horiz-adv-x="1001"
d="M281 543q-27 -1 -53 -1h-83q-18 0 -36.5 -6t-32.5 -18.5t-23 -32t-9 -45.5v-76h912v41q0 16 -0.5 30t-0.5 18q0 13 -5 29t-17 29.5t-31.5 22.5t-49.5 9h-133v-97h-438v97zM955 310v-52q0 -23 0.5 -52t0.5 -58t-10.5 -47.5t-26 -30t-33 -16t-31.5 -4.5q-14 -1 -29.5 -0.5
t-29.5 0.5h-32l-45 128h-439l-44 -128h-29h-34q-20 0 -45 1q-25 0 -41 9.5t-25.5 23t-13.5 29.5t-4 30v167h911zM163 247q-12 0 -21 -8.5t-9 -21.5t9 -21.5t21 -8.5q13 0 22 8.5t9 21.5t-9 21.5t-22 8.5zM316 123q-8 -26 -14 -48q-5 -19 -10.5 -37t-7.5 -25t-3 -15t1 -14.5
t9.5 -10.5t21.5 -4h37h67h81h80h64h36q23 0 34 12t2 38q-5 13 -9.5 30.5t-9.5 34.5q-5 19 -11 39h-368zM336 498v228q0 11 2.5 23t10 21.5t20.5 15.5t34 6h188q31 0 51.5 -14.5t20.5 -52.5v-227h-327z" />
    

    
    <glyph glyph-name="qing" unicode="&#58911;" d="M512.027119 567.852444c-147.784773 0-267.971894-120.18629-267.971894-267.856537 0-147.72039 120.187121-267.960914 267.971894-267.960914 147.672205 0 267.913563 120.240525 267.913563 267.960914C779.940682 447.666154 659.699324 567.852444 512.027119 567.852444zM512.027119 95.330574c-112.794454 0-204.672695 91.795683-204.672695 204.665333 0 112.818485 91.878242 204.559932 204.672695 204.559932 112.878368 0 204.622551-91.741447 204.622551-204.559932C716.64967 187.126256 624.905487 95.330574 512.027119 95.330574zM512.027119 614.393433c8.771117 0 15.798448 7.081279 15.798448 15.848966L527.825567 731.875125c0 8.766664-7.027332 15.85306-15.798448 15.85306-8.713809 0-15.820962-7.086395-15.820962-15.85306l0-101.631702C496.206157 621.474712 503.313309 614.393433 512.027119 614.393433zM333.158146 578.078343c2.919612-5.056156 8.260466-7.924483 13.657604-7.924483 2.696522 0 5.455469 0.729617 7.928901 2.13871 7.58915 4.381797 10.201757 13.995759 5.76145 21.638833l-50.736577 87.972611c-4.356393 7.643074-14.05057 10.17064-21.639719 5.789866-7.58915-4.445242-10.176174-14.054087-5.790104-21.643949L333.158146 578.078343zM233.883144 478.865737l-88.029429 50.704822c-7.534912 4.38589-17.234206 1.798972-21.586505-5.734608-4.38607-7.585769-1.803139-17.258059 5.78601-21.585621l87.975192-50.872644c2.50311-1.464351 5.229309-2.134617 7.900248-2.134617 5.421698 0 10.764599 2.922563 13.715935 7.979742C244.055225 464.702156 241.413963 474.421518 233.883144 478.865737zM197.537912 299.995907c0 8.717546-7.111246 15.798824-15.90897 15.798824l-101.577535 0c-8.742463 0-15.765701-7.082302-15.765701-15.798824 0-8.81783 7.023238-15.790638 15.765701-15.790638l101.577535 0C190.425643 284.205269 197.537912 291.178077 197.537912 299.995907zM218.028412 148.50975l-87.975192-50.760081c-7.58915-4.384867-10.17208-14.054087-5.78601-21.642926 2.918589-5.115508 8.202135-7.979742 13.686258-7.979742 2.666845 0 5.396115 0.729617 7.900248 2.193968l88.029429 50.809199c7.529796 4.334725 10.171057 14.054087 5.76145 21.585621C235.258524 150.304629 225.563324 152.891548 218.028412 148.50975zM354.744652 27.594867c-7.534912 4.334725-17.200435 1.743714-21.586505-5.785773l-50.819468-87.976704c-4.38607-7.529487-1.799046-17.194614 5.790104-21.638833 2.528693-1.463328 5.228286-2.079358 7.924808-2.079358 5.425792 0 10.821906 2.75474 13.714912 7.869225l50.736577 87.917352C364.945386 13.598084 362.333801 23.212046 354.744652 27.594867zM512.027119-14.501904c-8.713809 0-15.820962-7.086395-15.820962-15.854083l0-101.577466c0-8.713452 7.107153-15.795754 15.820962-15.795754 8.771117 0 15.798448 7.082302 15.798448 15.795754l0 101.577466C527.825567-21.588299 520.798236-14.501904 512.027119-14.501904zM690.870507 21.80807c-4.356393 7.588839-14.080247 10.225899-21.611066 5.785773-7.58915-4.381797-10.176174-13.996782-5.794197-21.694091l50.794908-87.917352c2.893005-5.114484 8.293213-7.869225 13.686258-7.869225 2.641262 0 5.425792 0.617054 7.924808 2.079358 7.564589 4.445242 10.14752 14.109346 5.79522 21.638833L690.870507 21.80807zM893.941663 97.74967l-87.971098 50.760081c-7.506259 4.327562-17.234206 1.794879-21.586505-5.79396-4.444401-7.53051-1.799046-17.249873 5.78601-21.585621l87.920954-50.809199c2.581907-1.464351 5.283546-2.193968 7.953462-2.193968 5.455469 0 10.793253 2.864234 13.690351 7.979742C904.147514 83.695582 901.590167 93.364803 893.941663 97.74967zM943.918916 315.794731l-101.577535 0c-8.797724 0-15.825055-7.082302-15.825055-15.798824 0-8.81783 7.027332-15.790638 15.825055-15.790638l101.577535 0c8.709716 0 15.796402 6.971785 15.796402 15.790638C959.715317 308.713452 952.628632 315.794731 943.918916 315.794731zM798.071341 449.243069c2.700616 0 5.425792 0.670266 7.900248 2.134617l87.971098 50.872644c7.648504 4.327562 10.205851 13.999852 5.794197 21.585621-4.330809 7.588839-14.054663 10.229992-21.643813 5.734608l-87.920954-50.704822c-7.585056-4.444219-10.230411-14.163581-5.78601-21.642926C787.278088 452.165632 792.590288 449.243069 798.071341 449.243069zM669.259442 572.29257c2.474456-1.409093 5.224192-2.13871 7.924808-2.13871 5.396115 0 10.793253 2.868327 13.686258 7.924483l50.820491 87.971587c4.38607 7.589862 1.769369 17.199731-5.76145 21.643949-7.530819 4.380774-17.313004 1.853208-21.644836-5.789866l-50.819468-87.972611C659.082245 586.287305 661.669269 576.674367 669.259442 572.29257z"  horiz-adv-x="1024" />

    
    <glyph glyph-name="37" unicode="&#58888;" d="M138.368 386.528c-20.736 0-39.936-8.256-54.144-23.104C70.272 348.896 62.912 329.888 63.424 309.92c0.448-19.968 8.64-38.592 23.104-52.416l312.576-298.816c15.424-14.656 36.224-22.208 57.728-20.544 21.184 1.856 40.832 12.544 53.76 29.696l434.88 575.04c24.96 33.024 18.304 80-14.656 104.832-32.064 24.128-80.832 17.28-104.832-14.656l-384.128-508.032L190.08 365.792C176.064 379.168 157.696 386.528 138.368 386.528"  horiz-adv-x="1024" />

    
    <glyph glyph-name="fast-forward" unicode="&#58975;" d="M749.548 168.381l0.028 0.166 0.245 0.423 0.103-0.315zM724.868 180.809l0.025 0.148 0.219 0.379 0.092-0.282zM867.194 524.433v-190.398l-324.099 199.081c-0.415 0.255-0.862 0.396-1.288 0.62-0.759 0.402-1.511 0.802-2.321 1.117-0.669 0.261-1.346 0.436-2.026 0.629-0.725 0.206-1.437 0.422-2.189 0.555-0.809 0.144-1.616 0.19-2.428 0.245-0.512 0.035-1.002 0.153-1.523 0.153-0.168 0-0.319-0.045-0.487-0.049-0.806-0.018-1.596-0.137-2.392-0.241-0.694-0.089-1.396-0.142-2.067-0.293-0.666-0.15-1.302-0.396-1.951-0.607-0.743-0.24-1.495-0.446-2.202-0.758-0.603-0.266-1.161-0.626-1.743-0.946-0.683-0.379-1.381-0.723-2.021-1.168-0.547-0.382-1.038-0.85-1.555-1.284-0.603-0.507-1.222-0.989-1.77-1.554-0.424-0.438-0.782-0.945-1.173-1.421-0.562-0.685-1.124-1.361-1.602-2.11-0.083-0.126-0.19-0.223-0.267-0.351-0.248-0.402-0.383-0.835-0.6-1.245-0.413-0.775-0.821-1.545-1.142-2.37-0.256-0.659-0.43-1.327-0.619-1.999-0.209-0.732-0.427-1.452-0.562-2.211-0.143-0.805-0.19-1.608-0.243-2.417-0.036-0.514-0.155-1.003-0.155-1.526v-210.473c-0.064 0.068-0.12 0.145-0.186 0.211-0.497 0.496-1.042 0.943-1.591 1.397-0.631 0.522-1.262 1.028-1.941 1.475-0.213 0.141-0.383 0.323-0.602 0.457l-358.419 220.162c-0.415 0.255-0.863 0.396-1.288 0.62-0.76 0.402-1.512 0.802-2.321 1.117-0.669 0.261-1.347 0.436-2.027 0.629-0.725 0.206-1.436 0.422-2.187 0.555-0.809 0.144-1.616 0.19-2.429 0.245-0.512 0.035-1.001 0.153-1.521 0.153-0.167 0-0.32-0.045-0.486-0.049-0.808-0.018-1.598-0.137-2.395-0.241-0.694-0.089-1.395-0.142-2.066-0.293-0.666-0.15-1.302-0.396-1.953-0.607-0.742-0.24-1.495-0.446-2.201-0.758-0.603-0.266-1.159-0.625-1.739-0.943-0.686-0.379-1.387-0.726-2.025-1.171-0.547-0.381-1.036-0.848-1.552-1.28-0.604-0.508-1.225-0.991-1.773-1.557-0.423-0.437-0.782-0.943-1.173-1.419-0.562-0.686-1.125-1.363-1.604-2.112-0.081-0.126-0.188-0.223-0.267-0.351-0.245-0.401-0.382-0.833-0.599-1.242-0.413-0.776-0.821-1.547-1.142-2.374-0.256-0.659-0.428-1.326-0.619-1.997-0.209-0.732-0.427-1.452-0.562-2.212-0.143-0.805-0.188-1.608-0.244-2.417-0.035-0.514-0.152-1.003-0.152-1.526l0-439.764c0-0.523 0.119-1.012 0.152-1.526 0.055-0.809 0.1-1.612 0.244-2.417 0.135-0.759 0.352-1.481 0.562-2.211 0.19-0.671 0.363-1.34 0.619-1.999 0.322-0.826 0.73-1.596 1.142-2.372 0.218-0.41 0.354-0.843 0.599-1.244 0.079-0.128 0.186-0.225 0.267-0.351 0.48-0.749 1.042-1.426 1.604-2.112 0.391-0.477 0.75-0.982 1.173-1.42 0.547-0.566 1.168-1.049 1.77-1.555 0.518-0.433 1.006-0.902 1.556-1.283 0.638-0.444 1.335-0.789 2.018-1.168 0.582-0.32 1.14-0.68 1.744-0.947 0.707-0.313 1.463-0.52 2.208-0.76 0.647-0.209 1.28-0.454 1.943-0.604 0.677-0.151 1.38-0.205 2.077-0.294 0.794-0.103 1.582-0.222 2.384-0.24 0.167-0.004 0.32-0.049 0.489-0.049 0.522 0 1.010 0.119 1.524 0.153 0.814 0.054 1.618 0.101 2.426 0.245 0.751 0.133 1.463 0.349 2.187 0.555 0.682 0.193 1.359 0.368 2.027 0.629 0.806 0.315 1.56 0.714 2.32 1.116 0.426 0.225 0.874 0.366 1.289 0.621l358.42 219.593c0.22 0.135 0.39 0.317 0.603 0.459 0.677 0.445 1.308 0.951 1.938 1.472 0.55 0.454 1.096 0.902 1.592 1.398 0.067 0.065 0.121 0.143 0.186 0.211v-197.9c0-0.523 0.119-1.012 0.155-1.526 0.052-0.809 0.099-1.612 0.243-2.417 0.135-0.76 0.352-1.481 0.562-2.211 0.19-0.671 0.363-1.34 0.619-1.999 0.322-0.826 0.73-1.596 1.142-2.372 0.218-0.41 0.352-0.843 0.6-1.244 0.077-0.128 0.184-0.225 0.267-0.351 0.479-0.749 1.041-1.426 1.602-2.112 0.391-0.477 0.751-0.982 1.173-1.419 0.547-0.567 1.168-1.049 1.77-1.555 0.518-0.433 1.008-0.902 1.555-1.283 0.639-0.444 1.337-0.789 2.021-1.168 0.581-0.32 1.137-0.68 1.743-0.947 0.707-0.313 1.464-0.52 2.208-0.76 0.647-0.209 1.28-0.454 1.943-0.604 0.677-0.151 1.379-0.205 2.078-0.294 0.793-0.103 1.58-0.222 2.384-0.24 0.165-0.004 0.319-0.049 0.487-0.049 0.523 0 1.010 0.119 1.525 0.153 0.813 0.054 1.616 0.101 2.425 0.245 0.751 0.133 1.464 0.349 2.189 0.555 0.679 0.193 1.357 0.368 2.026 0.629 0.806 0.315 1.561 0.714 2.318 1.116 0.427 0.225 0.875 0.366 1.291 0.621l324.099 198.566v-213.889h45.104l-0 484.87h-45.104zM156.805 108.385v359.175l292.741-179.82-292.741-179.355zM553.872 114.386v359.177l292.744-179.822-292.744-179.356z"  horiz-adv-x="1024" />

    
    <glyph glyph-name="fast-rewind" unicode="&#58976;" d="M749.548 168.381l0.028 0.166 0.245 0.423 0.103-0.315zM724.868 180.809l0.025 0.148 0.219 0.379 0.092-0.282zM111.702 524.433v-484.868h45.104v213.889l324.099-198.566c0.415-0.255 0.865-0.397 1.291-0.621 0.757-0.402 1.511-0.801 2.318-1.116 0.669-0.261 1.347-0.436 2.026-0.629 0.725-0.206 1.437-0.422 2.189-0.555 0.809-0.143 1.613-0.19 2.425-0.245 0.515-0.035 1.002-0.153 1.525-0.153 0.168 0 0.322 0.045 0.487 0.049 0.804 0.018 1.591 0.137 2.384 0.24 0.699 0.089 1.401 0.142 2.078 0.294 0.663 0.149 1.297 0.395 1.943 0.604 0.743 0.24 1.5 0.447 2.208 0.76 0.606 0.266 1.161 0.626 1.743 0.947 0.683 0.378 1.381 0.723 2.021 1.168 0.547 0.382 1.038 0.85 1.555 1.283 0.603 0.507 1.222 0.989 1.77 1.555 0.422 0.437 0.782 0.943 1.173 1.419 0.562 0.686 1.124 1.362 1.602 2.112 0.083 0.126 0.19 0.223 0.267 0.351 0.248 0.401 0.383 0.834 0.6 1.244 0.413 0.776 0.821 1.546 1.142 2.372 0.256 0.659 0.43 1.327 0.619 1.999 0.209 0.732 0.427 1.452 0.562 2.211 0.143 0.805 0.19 1.608 0.243 2.417 0.036 0.514 0.155 1.003 0.155 1.526v197.899c0.064-0.068 0.12-0.145 0.186-0.211 0.497-0.497 1.044-0.945 1.592-1.398 0.63-0.521 1.261-1.026 1.938-1.472 0.213-0.141 0.383-0.324 0.603-0.459l358.42-219.593c0.415-0.255 0.865-0.397 1.289-0.621 0.76-0.402 1.512-0.801 2.32-1.116 0.669-0.261 1.347-0.436 2.027-0.629 0.725-0.206 1.436-0.422 2.187-0.555 0.809-0.143 1.613-0.19 2.426-0.245 0.514-0.035 1.002-0.153 1.524-0.153 0.168 0 0.322 0.045 0.488 0.049 0.802 0.018 1.59 0.137 2.384 0.24 0.697 0.089 1.4 0.142 2.077 0.294 0.663 0.149 1.297 0.395 1.943 0.604 0.745 0.24 1.5 0.447 2.208 0.76 0.605 0.266 1.161 0.626 1.744 0.947 0.683 0.378 1.38 0.722 2.018 1.168 0.551 0.382 1.040 0.85 1.556 1.283 0.603 0.507 1.222 0.989 1.77 1.555 0.423 0.437 0.782 0.943 1.173 1.42 0.562 0.686 1.124 1.362 1.604 2.112 0.081 0.126 0.188 0.223 0.267 0.351 0.245 0.401 0.382 0.834 0.599 1.244 0.413 0.776 0.821 1.546 1.142 2.372 0.256 0.659 0.43 1.327 0.619 1.999 0.209 0.732 0.427 1.452 0.562 2.211 0.143 0.805 0.188 1.608 0.244 2.417 0.035 0.514 0.152 1.003 0.152 1.526l-0 439.763c0 0.523-0.119 1.012-0.152 1.526-0.055 0.809-0.1 1.612-0.244 2.417-0.135 0.759-0.352 1.481-0.562 2.212-0.191 0.67-0.363 1.338-0.619 1.997-0.322 0.827-0.73 1.597-1.142 2.374-0.218 0.409-0.354 0.842-0.599 1.242-0.079 0.128-0.186 0.225-0.267 0.351-0.479 0.749-1.042 1.426-1.604 2.112-0.391 0.477-0.75 0.982-1.173 1.419-0.547 0.567-1.169 1.050-1.772 1.557-0.518 0.432-1.005 0.899-1.552 1.28-0.639 0.445-1.34 0.792-2.025 1.171-0.579 0.318-1.136 0.677-1.739 0.943-0.706 0.312-1.459 0.518-2.201 0.758-0.651 0.21-1.287 0.456-1.953 0.607-0.671 0.15-1.372 0.203-2.066 0.293-0.797 0.104-1.587 0.223-2.396 0.241-0.165 0.003-0.319 0.049-0.486 0.049-0.52 0-1.009-0.119-1.521-0.153-0.814-0.054-1.62-0.101-2.429-0.245-0.751-0.133-1.463-0.349-2.187-0.555-0.682-0.193-1.359-0.368-2.027-0.629-0.808-0.315-1.561-0.715-2.321-1.117-0.426-0.224-0.873-0.366-1.288-0.62l-358.42-220.163c-0.219-0.134-0.388-0.317-0.602-0.457-0.678-0.445-1.309-0.952-1.941-1.475-0.55-0.453-1.094-0.901-1.591-1.397-0.067-0.065-0.121-0.143-0.186-0.211l0 210.473c0 0.523-0.119 1.012-0.155 1.526-0.052 0.809-0.099 1.612-0.243 2.417-0.135 0.759-0.352 1.48-0.562 2.211-0.19 0.671-0.363 1.34-0.619 1.999-0.322 0.826-0.73 1.595-1.142 2.37-0.218 0.41-0.352 0.844-0.6 1.245-0.077 0.128-0.184 0.225-0.267 0.351-0.479 0.748-1.041 1.425-1.602 2.11-0.391 0.477-0.749 0.983-1.173 1.421-0.547 0.566-1.168 1.048-1.77 1.554-0.518 0.434-1.008 0.903-1.555 1.284-0.639 0.444-1.337 0.79-2.021 1.168-0.581 0.319-1.14 0.679-1.743 0.946-0.707 0.312-1.459 0.518-2.202 0.758-0.65 0.21-1.285 0.456-1.951 0.607-0.671 0.15-1.373 0.203-2.067 0.293-0.795 0.104-1.586 0.223-2.392 0.241-0.168 0.003-0.319 0.049-0.487 0.049-0.52 0-1.010-0.119-1.523-0.153-0.813-0.054-1.619-0.101-2.428-0.245-0.751-0.133-1.464-0.349-2.189-0.555-0.679-0.193-1.357-0.368-2.026-0.629-0.809-0.315-1.561-0.715-2.321-1.117-0.427-0.224-0.873-0.366-1.288-0.62l-324.098-199.080v190.398h-45.103zM574.452 287.74l292.741 179.822 0-359.176-292.741 179.355zM177.384 293.742l292.743 179.822v-359.176l-292.743 179.355z"  horiz-adv-x="1024" />

    
    <glyph glyph-name="kuaisu" unicode="&#58906;" d="M623.76448 276.87328c5.773494 33.116235 16.269545 75.277474 16.269545 129.891326 0 170.518628-67.954695 288.155862-128.067794 288.155862-60.124356 0-128.067794-117.637234-128.067794-288.155862 0-56.728002 8.80862-93.337805 19.655665-129.679501-39.530318-33.877575-82.855056-82.691327-83.618443-179.049932 0 0 41.189098 26.489304 95.970772 48.024783 16.352433 6.424316 36.33658 12.383028 53.834092 17.09433 28.369118 7.640004 58.252729 7.582699 86.586031-0.190335 15.838733-4.344958 34.119075-10.000771 51.687196-16.903995 50.202379-19.721157 96.048543-48.024783 96.048543-48.024783C703.299931 194.294516 663.294798 242.996728 623.76448 276.87328zM561.741891 182.702504c-15.97381 4.38282-32.474622 6.604418-49.043996 6.604418-16.293081 0-32.536021-2.149966-48.279586-6.389524-22.49841-6.057973-41.337477-12.04943-55.994292-17.806551-25.51921-10.032494-48.083112-21.036106-65.255213-30.151717 3.645017 24.477484 10.903328 46.302559 21.917172 66.071811 15.245216 27.365254 35.68371 46.713928 51.785433 60.514235l10.095939 8.653077-3.802606 12.741185c-9.512654 31.870872-18.801205 67.685565-18.801205 123.82619 0 75.737962 14.010085 146.453537 39.449477 199.120037 10.894118 22.551622 23.570835 40.863686 36.663014 52.956096 11.05887 10.214642 21.947871 15.613606 31.489178 15.613606 9.53926 0 20.426215-5.398964 31.485085-15.612583 13.091156-12.092409 25.76992-30.404474 36.663014-52.956096 25.442462-52.66957 39.454594-123.385145 39.454594-199.120037 0-42.382273-6.502088-76.360132-12.238742-106.33891-1.342578-7.010671-2.609431-13.632485-3.726881-20.038382l-2.000564-11.476379 8.845459-7.579629c30.493501-26.131147 61.633732-61.520145 70.604034-126.763079-17.857716 9.488095-41.10928 20.937868-65.554018 30.540573C599.581708 171.365294 581.494771 177.284097 561.741891 182.702504zM512.005117 152.426967c-40.137139 0-62.189388-43.474141-62.189388-109.868293 0-66.396199 62.189388-136.456858 62.189388-136.456858s62.178131 70.061682 62.178131 136.456858C574.183248 108.953849 550.962384 152.426967 512.005117 152.426967zM470.28083 42.558673c0 29.686113 4.673439 53.884234 13.514805 69.977771 9.564843 17.411555 20.679995 19.424398 28.208459 19.424398 4.190439 0 16.942881 0 27.818579-19.527752 9.090029-16.320711 13.894452-40.48404 13.894452-69.874417 0-36.229133-23.359011-77.462233-41.663912-103.240339C495.155357-37.03613 470.28083 4.272695 470.28083 42.558673zM512.005117 568.975011c-34.983769 0-63.438844-21.408589-63.438844-47.725978 0-6.418176 1.782599-11.54801 5.464455-15.679098 5.082762-5.712095 13.359262-8.987698 22.735817-8.987698 6.737448 0 12.954033-0.124843 18.974144 1.473561 5.53404 1.474584 11.263531 2.992147 16.264429 2.992147 4.989641 0 10.720156-1.518586 16.253172-2.992147 6.007831-1.597381 12.235672-2.496867 18.974144-2.496867 9.376555 0 17.654079 4.298909 22.735817 10.011005 3.681856 4.13211 5.464455 9.260921 5.464455 15.679098C575.431681 547.566422 546.976606 568.975011 512.005117 568.975011zM533.517059 517.833237c-6.473435 1.705851-13.81054 3.679809-21.511943 3.679809-7.713682 0-15.055904-1.956561-21.533432-3.682879-2.733251-0.725524-21.438265-6.773264-21.438265 3.417843 0 16.84055 17.647939 27.259854 42.97272 27.259854 25.316595 0 42.960441-9.395998 42.960441-27.260877C554.965557 510.971969 539.039843 516.379119 533.517059 517.833237z"  horiz-adv-x="1024" />

    
    <glyph glyph-name="xiazai" unicode="&#58905;" d="M182.217576 313.329587l288.938692-288.926412c22.534226-22.534226 59.139935-22.534226 81.681324 0l288.932552 288.926412c22.540366 22.534226 22.540366 59.140958 0 81.672114-22.583344 22.586414-59.137889 22.586414-81.722256 0L569.816289 204.784428 569.816289 700.855644c0 31.950689-25.867134 57.763588-57.81987 57.763588-31.946596 0-57.81987-25.813922-57.81987-57.763588l0-496.071216L263.949043 395.002724c-11.263531 11.320836-26.075889 16.924461-40.838104 16.924461-14.811334 0-29.621645-5.603625-40.892339-16.924461C159.685397 372.470545 159.685397 335.864836 182.217576 313.329587M945.354314-97.261793c0-33.853016-27.458375-61.358463-61.416791-61.358463L140.061454-158.620255c-33.965579 0-61.417815 27.505447-61.417815 61.358463l0 0c0 33.960463 27.451212 61.464887 61.417815 61.464887l743.878115 0C917.895939-35.796906 945.354314-63.30133 945.354314-97.261793L945.354314-97.261793 945.354314-97.261793z"  horiz-adv-x="1024" />

    
    <glyph glyph-name="zanting" unicode="&#59003;" d="M85.644005 747.798792l348.425477 0 0-895.324362L85.644005-147.52557 85.644005 747.798792zM588.896937 747.798792l348.428547 0 0-895.324362L588.896937-147.52557 588.896937 747.798792z"  horiz-adv-x="1024" />

    
    <glyph glyph-name="bofang" unicode="&#58890;" d="M953.246051 487.676403c-24.173562 57.153698-58.774615 108.475574-102.839203 152.541185-44.066635 44.065612-95.388511 78.665641-152.541185 102.840226C638.676609 768.093001 575.821049 780.786091 511.044744 780.786091S383.413901 768.093001 324.224848 743.057815c-57.153698-24.174586-108.475574-58.774615-152.541185-102.840226s-78.665641-95.387487-102.840226-152.541185C43.809273 428.48735 31.11516 365.63179 31.11516 300.855484c0-64.775282 12.694113-127.630842 37.728276-186.820919 24.174586-57.153698 58.774615-108.475574 102.840226-152.541185 44.065612-44.065612 95.387487-78.665641 152.541185-102.839203 59.189054-25.035186 122.044614-37.728276 186.819896-37.728276s127.631866 12.69309 186.819896 37.728276c57.153698 24.173562 108.475574 58.774615 152.541185 102.839203 44.065612 44.066635 78.665641 95.388511 102.839203 152.541185 25.035186 59.190077 37.728276 122.045637 37.728276 186.820919C990.974327 365.63179 978.281237 428.48735 953.246051 487.676403zM511.044744-114.605809c-229.086535 0-415.461293 186.375781-415.461293 415.462317s186.374758 415.462317 415.461293 415.462317c229.085512 0 415.461293-186.375781 415.461293-415.462317S740.130256-114.605809 511.044744-114.605809zM720.312908 327.448142 414.345378 504.093305c-9.497305 5.482875-21.200858 5.483898-30.699186 0-9.498328-5.483898-15.349593-15.618723-15.349593-26.585495l0-353.301582c0-10.967796 5.851265-21.10262 15.349593-26.585495 4.749164-2.742461 10.048867-4.113691 15.349593-4.113691s10.600429 1.37123 15.349593 4.113691l305.966507 176.656419c9.498328 5.483898 15.349593 15.618723 15.349593 26.586518C735.662501 311.82942 729.811236 321.964244 720.312908 327.448142z"  horiz-adv-x="1024" />

    
    <glyph glyph-name="zhucedengluyonghuming" unicode="&#58922;" d="M928.382896 20.478172c-16.965943 46.689367-41.579822 89.948478-73.155583 128.575208-51.760002 63.320477-120.315971 111.082951-196.762552 137.862498 12.559856 8.716946 24.437758 18.60837 35.477038 29.648675 48.352273 48.351249 74.981299 112.635269 74.981299 181.013069 0 68.3778-26.629026 132.662844-74.981299 181.013069-48.351249 48.349201-112.634245 74.976179-181.00795 74.976179-68.3778 0-132.662844-26.626978-181.012045-74.976179s-74.976179-112.634245-74.976179-181.013069c0-68.3778 26.626978-132.662844 74.976179-181.012045 10.997298-10.997298 22.827073-20.858004 35.334708-29.549351-76.436342-26.701727-144.996406-74.372044-196.810678-137.613676-31.667918-38.653353-56.356545-81.956494-73.376758-128.70525-17.616156-48.38504-26.548133-99.258295-26.548133-151.205681 0-12.852708 10.419786-23.272495 23.272495-23.272495s23.271471 10.419786 23.271471 23.272495c0 184.927657 130.697871 347.138828 311.032057 386.437274 26.902422-9.421428 55.490277-14.340518 84.837909-14.340518 29.29541 0 57.834115 4.902706 84.696603 14.293416 180.095604-39.415177 310.672648-201.692905 310.672648-386.391196 0-12.852708 10.419786-23.272495 23.272495-23.272495s23.272495 10.419786 23.272495 23.272495C954.847064-78.641889 945.942734-27.842359 928.382896 20.478172zM303.487542 497.576598c0 115.489037 93.95727 209.446307 209.445283 209.446307 115.488014 0 209.445283-93.95727 209.445283-209.446307 0-115.489037-93.95727-209.445283-209.445283-209.445283C397.444811 288.131314 303.487542 382.08756 303.487542 497.576598z"  horiz-adv-x="1024" />

    
    <glyph glyph-name="xingbie" unicode="&#58936;" d="M946.469 620.193l-127.833 80.783c-17.651 11.154-40.882 5.876-51.888-11.783-11.005-17.667-5.619-41.025 12.03-52.179l53.327-33.699-162.412-36.893C632.058 669.249 540.164 740.506 435.031 754.538c-16.72 3.003-33.853 4.828-51.436 4.828-159.943 0-289.6-129.779-289.6-289.87 0-147.792 110.581-269.497 253.4-287.364l0-74.973 0-36.238-72.401 0c-19.993 0-36.201-16.217-36.201-36.229s16.208-36.232 36.201-36.232l72.401 0 0-72.471 0-16.985 8.864-8.822c14.771-14.701 38.718-14.701 53.491 0l10.043 9.999 0 15.809 0 72.471 72.401 0c19.995 0 36.202 16.221 36.202 36.232s-16.207 36.229-36.202 36.229l-72.401 0 0 36.238 0 71.764c14.317 1.06 28.695 2.83 43.113 6.103 144.036 32.719 237.779 167.521 223.067 310.778l161.268 36.631-32.369-51.951c-11.005-17.659-5.618-41.021 12.033-52.174 17.652-11.152 40.88-5.878 51.883 11.784l79.708 127.921C969.503 585.68 964.12 609.041 946.469 620.193zM388.596 237.913c-126.19 0-228.488 102.298-228.488 228.488s102.297 228.488 228.488 228.488c126.19 0 228.488-102.297 228.488-228.488S514.786 237.913 388.596 237.913z"  horiz-adv-x="1024" />

    
    <glyph glyph-name="zhuce" unicode="&#59031;" d="M826.76843 457.725246C772.586301 510.712808 718.489498 563.700371 664.307369 616.687933 656.713338 624.196637 656.713338 624.196637 648.863329 616.346628 525.481662 493.22094 402.185321 370.009925 278.633001 246.969563 272.660168 240.996729 268.991142 234.597265 266.772661 226.576604 247.744921 156.011847 228.461203 85.44709 209.262811 14.967659 207.556287 8.738847 205.849763 2.595362 204.143239-3.889429 204.484544-11.056828 209.518789-7.21715 212.163901-6.534541 288.616165 14.626354 365.068429 35.957901 441.520693 57.118795 447.237548 58.739993 451.674509 61.641083 455.855493 65.73674 579.493138 189.28906 703.21611 312.841379 826.853756 436.308373 837.690182 447.059472 837.690182 447.059472 826.76843 457.725246ZM735.810714 457.639919C689.137289 411.051821 642.549191 364.29307 595.961092 317.619646 527.444164 249.017391 458.841909 180.415136 390.410307 111.727555 385.63204 106.863963 380.427143 103.706894 373.857026 101.915044 348.856453 95.174275 324.026533 88.092201 299.111286 81.18078 295.783565 80.242192 291.346603 77.682407 291.602582 84.167197 297.831393 106.949289 304.572162 128.792793 309.521081 151.148254 313.019455 166.592294 320.784138 177.940677 331.791216 188.862429 434.182641 290.741897 536.147435 393.047996 638.282881 495.183442 648.522024 505.422584 659.102471 515.14977 669.341614 525.388912 673.01064 529.143265 675.655752 528.887286 679.580756 525.388912 699.376432 507.555739 717.55091 487.84539 736.919954 469.50026 742.295504 464.380688 739.735718 461.479598 735.810714 457.639919ZM1022.848008 696.638571C1017.643111 759.182666 965.764789 811.743598 896.309272 811.999576 862.178797 812.084902 832.229306 799.285974 807.74069 775.053337 777.193915 744.847867 746.988444 714.301091 716.441669 684.010295 711.578077 679.232028 711.322098 676.245612 716.356343 671.467345 735.981366 653.122215 755.265085 634.521106 774.548803 615.834671 811.921673 579.656368 849.209217 543.392738 886.326109 507.043782 890.76307 502.692146 893.23753 502.350842 897.759818 506.87313 927.623983 537.163926 957.91478 566.942766 987.778945 597.233562 1011.584952 621.380873 1022.59203 651.074387 1023.957249 686.484754 1023.70127 688.703235 1023.189313 692.62824 1022.848008 696.638571ZM939.228345 638.275458C924.381588 623.172723 909.193527 608.24064 894.34677 593.137905 892.042963 590.919424 890.848396 591.090077 888.629916 593.223231 870.114133 611.397709 851.513024 629.486861 832.826589 647.576013 823.18473 656.791241 813.542871 666.091796 803.815685 675.307024 801.2559 677.696157 801.426552 679.232028 803.815685 681.535835 819.089073 696.638571 834.191808 711.911958 849.465196 727.014693 861.66684 739.045686 876.598923 745.44515 893.578834 745.44515 928.306593 745.274498 954.160428 719.079358 956.720213 687.849973 956.976192 685.887471 957.146844 683.839643 957.317496 682.815728 956.634887 665.067881 951.088685 650.306451 939.228345 638.275458ZM1021.141485 444.585013C1018.496373 443.817077 1016.960502 441.51327 1015.168652 439.72142 993.581126 418.133895 971.908275 396.546369 950.320749 374.958844 950.406075 258.65925 950.576728 142.359657 950.235423 26.060063 950.064771-23.429126 931.890293-65.750915 894.517423-98.772149 864.653257-125.223267 829.328215-139.558067 789.054255-139.558067 603.384471-139.814045 417.629361-139.814045 231.959577-139.558067 193.477466-139.472741 159.346991-125.991203 130.080109-100.905304 91.171367-67.457438 72.228954-24.794345 72.228954 26.401368 72.31428 208.231473 72.31428 389.976253 72.228954 571.721032 72.143627 622.148809 90.65941 664.299946 128.03228 697.662485 155.592639 722.236427 188.357895 735.888617 225.645439 737.595141 273.684082 739.898948 321.722726 738.363076 369.846696 738.533729 441.947324 738.789707 514.047952 738.704381 586.148581 738.619055 607.736106 760.121254 629.238306 781.623453 650.740505 803.210979 652.617681 805.088155 656.628012 806.709353 655.177467 809.695769 654.068226 811.999576 650.313874 810.719683 647.754088 810.719683 547.325166 810.80501 446.981569 810.975662 346.552646 810.719683 290.578667 810.549031 234.604688 812.255555 178.630709 809.610443 135.285006 807.562614 97.1442 791.77727 65.061554 763.022345 21.545198 724.198929-0.042327 675.136371 0.042999 616.431954 0.213651 404.823009 0.128325 193.128738 0.128325-18.480207 0.128325-78.123212 22.142482-127.783053 67.450687-166.691794 101.495836-195.873351 141.172513-211.658695 186.054088-211.658695 402.270647-212.085326 618.487206-212 834.703765-211.744021 881.547842-211.744021 922.675064-195.020089 957.488149-164.217335 1000.919178-125.820551 1022.165399-76.502014 1022.336051-18.821512 1022.762682 132.973776 1022.506704 284.85439 1022.421378 436.735004 1022.421378 439.209463 1023.274639 442.025227 1021.141485 444.585013Z"  horiz-adv-x="1024" />

    
    <glyph glyph-name="mima" unicode="&#58901;" d="M818.555419 330.494525c-13.929244 17.712407-33.873482 27.871791-54.717206 27.871791L314.083883 358.366316 314.083883 495.941648c0 108.481713 88.373747 196.74085 196.999746 196.74085 108.699678 0 197.131753-88.259136 197.131753-196.74085l0-48.875151 54.928007 0 0 48.875151c0 67.275219-26.221198 130.4961-73.838705 178.016393C641.713782 721.454798 578.42127 747.611527 511.082606 747.611527c-138.912793 0-251.927753-112.899326-251.927753-251.66988L259.154853 358.365292l-0.468674 0c-20.826328 0-40.788985-10.135848-54.766324-27.812439-12.722766-16.08535-19.72832-37.181831-19.72832-59.401902l0-329.756329c0-48.107671 33.418111-87.247086 74.496691-87.247086l505.151012 0c40.968064 0 74.300216 39.139415 74.300216 87.247086L838.139453 271.150952C838.13843 293.358743 831.185065 314.432711 818.555419 330.494525zM783.210423-58.603331c0-18.202571-10.41521-32.320103-19.373233-32.320103L258.687202-90.923434c-9.049097 0-19.567661 14.117532-19.567661 32.320103L239.119541 271.150952c0 18.478863 10.330276 32.286334 19.567661 32.286334l505.151012 0c9.146311 0 19.373233-13.807471 19.373233-32.286334L783.210423-58.603331 783.210423-58.603331z"  horiz-adv-x="1024" />

    
    <glyph glyph-name="zanting1" unicode="&#58994;" d="M295.539828-101.33632C295.539828-162.411025 244.662019-211.92163 181.907531-211.92163 119.146182-211.92163 68.266667-162.411025 68.266667-101.33632L68.266667 701.412983C68.266667 762.487757 119.146182 812 181.907531 812 244.662019 812 295.539828 762.487757 295.539828 701.412983L295.539828-101.33632 295.539828-101.33632ZM888.277299-101.33632C888.277299-162.411025 837.397777-211.92163 774.643289-211.92163 711.881946-211.92163 661.002424-162.411025 661.002424-101.33632L661.002424 701.412983C661.002424 762.487757 711.881946 812 774.643289 812 837.397777 812 888.277299 762.487757 888.277299 701.412983L888.277299-101.33632 888.277299-101.33632Z"  horiz-adv-x="1024" />

    
    <glyph glyph-name="iconfontjiantou" unicode="&#59047;" d="M621.248 18.752l320 320c24.992051 24.992051 24.992051 65.504051 0 90.496l-320 320c-24.992051 24.992051-65.504051 24.992051-90.496 0-24.992051-24.992051-24.992051-65.504051 0-90.496l210.752-210.752-613.504 0c-35.360051 0-64-28.640051-64-64s28.640051-64 64-64l613.504 0-210.752-210.752c-12.48-12.48-18.752-28.864-18.752-45.248s6.240051-32.768 18.752-45.248c24.992051-24.992051 65.504051-24.992051 90.496 0z"  horiz-adv-x="1024" />

    
    <glyph glyph-name="yinlebaomianfeishiting" unicode="&#58892;" d="M710.645849 328.661758c0 12.531383 10.189039 22.729632 22.731678 22.729632 12.540592 0 22.730655-10.199272 22.730655-22.729632l0-332.062198c0-12.551849-10.190063-22.740888-22.730655-22.740888-12.542639 0-22.731678 10.189039-22.731678 22.740888L710.645849 328.661758zM313.354151-3.39123c0-12.551849-10.199272-22.740888-22.731678-22.740888-12.531383 0-22.729632 10.189039-22.729632 22.740888l0 332.051965c0 12.531383 10.199272 22.729632 22.729632 22.729632 12.542639 0 22.731678-10.199272 22.731678-22.729632L313.354151-3.39123zM512 794.141328c101.912907 0 199.90042-38.068961 276.494736-107.289347l-12.373794-12.372771c-52.378846 47.230603-139.833489 101.871975-264.119918 101.871975-124.129864 0-212.315146-55.304473-265.376536-103.147012l-12.639853 13.530128C310.626022 756.032458 409.148723 794.141328 512 794.141328zM230.336555 295.969237l0-266.658736c-71.284391 2.610449-128.477883 61.412575-128.477883 133.319135l0 5.346764C104.508007 238.143343 160.514466 293.458049 230.336555 295.969237zM793.662422 29.301291 793.662422 295.957981c71.286437-2.608402 128.478906-61.410529 128.478906-133.328345C922.141328 90.713867 864.947835 31.91174 793.662422 29.301291zM512 831.695567c-246.864964 0-447.695567-200.828557-447.695567-447.69045l0-221.375481c0-92.679634 74.131223-168.373442 166.22041-170.90305 2.489699-30.963137 28.491858-55.40271 60.087397-55.40271 33.245105 0 60.285918 27.040812 60.285918 60.295127L350.898157 328.661758c0 33.235896-27.040812 60.285918-60.285918 60.285918-31.595539 0-57.597698-24.44162-60.087397-55.403733-50.600344-1.403973-97.455394-24.964528-128.675381-64.325922L101.849462 384.005117c0 101.922117 38.059751 199.898373 107.288324 276.491666l24.026158-24.026158c3.558029-3.547795 8.863861-5.594404 14.557525-5.594404 6.029308 0 11.246113 2.284015 15.951265 6.988144 64.148891 64.138658 154.657073 100.932582 248.327265 100.932582 93.660983 0 184.168142-36.792901 248.317032-100.932582 4.704129-4.704129 9.912747-6.988144 15.951265-6.988144 5.691618 0 10.990287 2.045585 14.557525 5.594404l24.024112 24.014902c69.220386-76.582036 107.290371-174.558292 107.290371-276.480409l0-115.234281c-32.278083 39.590614-79.161786 63.330247-128.675381 64.76185-2.491746 30.983603-28.493904 55.413967-60.099676 55.413967-33.235896 0-60.284894-27.039789-60.284894-60.285918l0-332.062198c0-33.247152 27.038766-60.295127 60.284894-60.295127 31.605772 0 57.597698 24.449806 60.099676 55.40271 92.088164 2.539841 166.22962 78.242859 166.22962 170.922493L959.694544 384.005117C959.695567 630.86701 758.864964 831.695567 512 831.695567z"  horiz-adv-x="1024" />

    
    <glyph glyph-name="yin" unicode="&#58884;" d="M119.497605 312.476013c-7.271614 0-14.304797 3.776-18.185174 10.492982-5.806239 10.037611-2.341325 22.871917 7.695263 28.64234l80.823793 46.620807c4.16281 2.410909 8.779967 2.901073 13.220093 2.307555-8.220219 17.838274-13.081946 36.96796-14.898315 56.69321-3.603061-2.866281-7.938809-4.825912-12.907984-4.825912L82.007759 452.406996c-11.611455 0-20.985964 9.374508-20.985964 20.985964 0 11.611455 9.374508 20.982894 20.985964 20.982894l93.236498 0c5.108345 0 9.656941-2.065032 13.294794-5.104251 1.851161 20.282952 6.711865 39.552831 14.933107 57.218166-1.118474-0.178055-2.098801-0.841158-3.252067-0.841158-3.567245 0-7.17133 0.909719-10.492982 2.831488l-80.758302 46.620807c-10.033517 5.805216-13.46364 18.640546-7.656377 28.678156 5.805216 10.037611 18.640546 13.467733 28.678156 7.661494l80.787978-46.654576c4.27128-2.449795 7.033184-6.296403 8.711406-10.562567 11.473309 16.122189 25.530466 30.218232 41.689495 41.652655-4.374634 1.681292-8.324596 4.231371-10.843976 8.571213l-46.586015 80.753185c-5.805216 10.037611-2.341325 22.87294 7.697309 28.644387 10.001795 5.875824 22.871917 2.376117 28.64234-7.696286l46.586015-80.753185c2.479471-4.300956 2.935865-9.022491 2.27174-13.566994 17.591657 8.111748 36.789904 12.938684 56.935734 14.789844-3.039219 3.672646-5.069459 8.18645-5.069459 13.329587l0 93.236498c0 11.611455 9.405207 20.985964 20.982894 20.985964 11.577686 0 20.985964-9.374508 20.985964-20.985964l0-93.236498c0-4.89959-1.960655-9.200546-4.756327-12.769838 19.793812-1.851161 38.889729-6.994298 56.588833-15.175631-0.667196 4.474918-0.178055 9.196453 2.27174 13.428847l46.620807 80.753185c5.806239 10.072403 18.710131 13.502525 28.644387 7.695263 10.037611-5.805216 13.46364-18.640546 7.692193-28.64234l-46.615691-80.753185c-2.485611-4.340865-6.473435-6.889921-10.810207-8.572236 16.017812-11.295254 30.18344-25.214265 41.794895-41.548278 1.677199 4.197602 4.440126 8.008394 8.671497 10.458189l80.758302 46.654576c9.964956 5.841032 22.837124 2.342348 28.644387-7.661494 5.805216-10.037611 2.341325-22.871917-7.696286-28.678156l-80.719416-46.689369c-3.321652-1.921769-6.924713-2.831488-10.492982-2.831488-6.503111 0-12.555967 3.425006-16.61133 8.919137l-53.40635-30.009478c-18.605753 33.19196-53.683666 53.792137-91.562369 53.792137-57.846476 0-104.922654-47.075155-104.922654-104.922654 0-21.228487 6.331195-41.689495 18.259876-59.108213l-54.42147-37.314861c-0.905626-6.087649-4.196579-11.715833-9.933233-15.041578l-80.82277-46.620807C126.668934 313.386756 123.030058 312.476013 119.497605 312.476013L119.497605 312.476013zM956.35639 193.600579c0-96.423073-78.446653-174.87075-174.87075-174.87075L256.873392 18.729829c-77.149101 0-139.891074 62.74095-139.891074 139.89619 0 78.308507 65.470107 141.782144 143.391804 139.861398 16.229636 79.739089 86.910419 139.932006 171.370019 139.932006 9.127891 0 18.22406-0.772596 27.38572-2.346441 36.721343 65.22656 106.600877 107.268072 182.458565 107.268072 108.837824 0 198.618617-83.312474 208.863958-189.491749C913.932162 326.677457 956.35639 264.143215 956.35639 193.600579L956.35639 193.600579zM886.407272 193.600579c0 47.703465-32.524764 89.356121-79.074963 101.250008l-26.931373 6.854105 1.188058 34.346249c-0.103354 74.595952-62.845327 137.342018-140.000568 137.342018-57.564044 0-110.025882-36.512588-130.452097-90.829681l-12.101619-32.137954-32.385595 11.538801c-12.344143 4.374634-23.782659 6.508227-34.904974 6.508227-57.846476 0-104.921631-47.075155-104.921631-104.922654l0.632403-4.513804 3.218298-53.020564-49.946552 17.977443c-8.568143 3.078105-16.363689 4.583388-23.853267 4.583388-38.572504 0-69.947072-31.371498-69.947072-69.948095s31.374568-69.948095 69.947072-69.948095l524.612249 0C839.332117 88.677924 886.407272 135.755126 886.407272 193.600579L886.407272 193.600579zM886.407272 193.600579"  horiz-adv-x="1024" />

    
    <glyph glyph-name="headphones1179248easyiconnet" unicode="&#58885;" d="M315.728457 325.485714c-16.149943 0-29.257143-13.1072-29.257143-29.257143l0-336.457143c0-16.149943 13.1072-29.257143 29.257143-29.257143s29.257143 13.1072 29.257143 29.257143L344.9856 296.228571C344.9856 312.378514 331.893029 325.485714 315.728457 325.485714zM696.071314 325.485714c-16.149943 0-29.257143-13.1072-29.257143-29.257143l0-336.457143c0-16.149943 13.1072-29.257143 29.257143-29.257143 16.164571 0 29.257143 13.1072 29.257143 29.257143L725.328457 296.228571C725.328457 312.378514 712.235886 325.485714 696.071314 325.485714zM805.098057 428.353829c0-8.0896 6.714514-17.671314 14.965029-17.671314 8.279771 0 14.965029 9.581714 14.965029 17.671314 0 178.878171-139.688229 327.460571-311.369143 327.460571L510.683429 755.8144c-173.070629 0-319.2832-150.454857-319.2832-325.8368 0-8.0896 6.699886-16.910629 14.965029-16.910629 8.265143 0 14.965029 8.074971 14.965029 16.149943 0 159.524571 132.5056 297.340343 289.353143 297.340343l13.0048 0C678.838857 726.557257 805.098057 591.111314 805.098057 428.353829zM915.499886 271.096686l0 144.6912c0 240.420571-159.349029 427.797943-381.761829 427.797943l-16.413257 0c-231.599543 0-435.653486-199.211886-435.653486-427.797943L81.671314 252.342857c0-2.004114 1.360457-3.964343 1.726171-5.8368-24.4736-33.821257-38.7072-74.737371-38.7072-117.906286 0-108.778057 93.023086-204.1856 201.801143-204.1856 16.149943 0 25.351314 13.1072 25.351314 29.257143L271.842743 303.542857c0 16.149943-10.810514 29.257143-26.975086 29.257143-37.931886 0-75.424914-11.805257-104.682057-31.524571l0 114.512457c0 196.871314 177.269029 369.283657 377.1392 369.283657l16.413257 0c189.045029 0 323.247543-162.245486 323.247543-369.283657l0-103.043657c-29.257143 12.668343-54.857143 20.055771-84.714057 20.055771-16.164571 0-32.314514-13.1072-32.314514-29.257143l0-349.871543c0-16.149943 17.290971-29.257143 33.455543-29.257143 108.778057 0 203.600457 95.407543 203.600457 204.1856C977.013029 182.813257 959.3856 233.691429 915.499886 271.096686zM213.328457-13.487543c-14.628571 2.530743-20.523886 6.407314-30.471314 11.351771 0.760686 1.784686 1.214171 3.730286 1.214171 5.792914L184.071314 259.905829c14.628571 4.666514 14.628571 8.367543 29.257143 10.795886L213.328457-13.487543zM154.814171 241.473829l0-225.733486c-29.257143 26.243657-57.899886 66.194286-57.899886 112.859429C96.914286 175.264914 125.557029 215.230171 154.814171 241.473829zM798.471314 270.701714c14.628571-2.428343 29.257143-6.129371 29.257143-10.795886l0-262.582857c0-4.666514-14.628571-8.382171-29.257143-10.795886L798.471314 270.701714zM856.9856 15.754971l0 225.718857c29.257143-26.243657 57.914514-66.208914 57.914514-112.874057S886.242743 41.984 856.9856 15.754971z"  horiz-adv-x="1024" />

    
    <glyph glyph-name="dengpao" unicode="&#59044;" d="M729.934544 695.285652c-55.079456 55.079456-128.312364 85.413322-206.206432 85.413322-77.895091 0-151.126976-30.333866-206.206432-85.413322s-85.413322-128.311341-85.413322-206.206432c0-52.017724 13.873985-103.089913 40.121789-147.69276 22.929222-38.963407 54.735625-72.190159 92.544743-96.821139l0-142.249795c0-37.058011 30.147624-67.206658 67.205635-67.206658l183.143157 0c37.058011 0 67.206658 30.148647 67.206658 67.206658L682.33034 244.33303c37.901215 24.613584 69.787436 57.850569 92.784196 96.860025 26.321482 44.650943 40.234353 95.789647 40.234353 147.886165C815.347866 566.974311 785.015024 640.206196 729.934544 695.285652zM615.122659 86.275201 431.980525 86.275201c-8.844435 0-16.040325 7.195889-16.040325 16.041348l0 60.375066 215.223806 0 0-60.375066C631.164007 93.471091 623.968118 86.275201 615.122659 86.275201zM731.036645 367.176846c-21.070898-35.743062-51.188846-65.615417-87.09973-86.390579l-12.771885-7.389294 0-59.541071L415.940201 213.855902l0 59.722196-12.738116 7.396457c-35.824927 20.796652-65.865103 50.66082-86.874603 86.36295-21.623483 36.743856-33.05279 78.841649-33.05279 121.741715 0 64.227814 25.01165 124.611066 70.427002 170.027441 45.416376 45.415352 105.799628 70.427002 170.027441 70.427002 64.227814 0 124.611066-25.01165 170.027441-70.427002 45.415352-45.416376 70.427002-105.799628 70.427002-170.027441C764.182556 446.114686 752.720503 403.960611 731.036645 367.176846zM612.406804 2.986263 435.048397 2.986263c-14.128789 0-25.582655-11.453866-25.582655-25.582655s11.453866-25.582655 25.582655-25.582655l177.358407 0c14.129812 0 25.582655 11.453866 25.582655 25.582655S626.536616 2.986263 612.406804 2.986263zM218.350007 705.997622"  horiz-adv-x="1024" />

    
    <glyph glyph-name="danganguanli" unicode="&#58896;" d="M864.799744 514.187264l-4.774912 0 0 74.200064c0 31.299584-25.499648 56.824832-56.824832 56.824832L493.825024 645.21216l0 39.4752c0 31.299584-25.499648 56.800256-56.800256 56.800256L159.224832 741.487616c-31.325184 0-56.824832-25.499648-56.824832-56.800256l0-601.40032c0-31.325184 25.499648-56.774656 56.824832-56.774656l643.975168 0c31.325184 0 56.824832 25.450496 56.725504 55.725056L921.6 457.387008C921.6 488.687616 896.100352 514.187264 864.799744 514.187264zM152.875008 659.412992c0 24.5248 7.074816 31.625216 31.599616 31.625216l227.300352 0c24.450048 0 31.550464-7.100416 31.550464-31.625216l0-58.375168 1.574912-6.299648 333.100032 0c24.474624 0 31.550464-7.100416 31.550464-31.550464l0-49.000448-588.8 0c-31.299584 0-56.800256-25.499648-56.75008-55.825408l-11.124736-72.349696L152.876032 659.412992zM809.549824 108.587008c0-24.5248-7.074816-31.599616-31.599616-31.599616L184.474624 76.987392c-24.5248 0-31.599616 7.074816-31.699968 30.425088l61.674496 324.724736c0 24.500224 7.100416 31.599616 31.550464 31.599616l593.524736 0c24.474624 0 31.57504-7.100416 31.675392-30.425088L809.549824 108.587008z"  horiz-adv-x="1024" />

    
    <glyph glyph-name="dengluzhuce" unicode="&#59027;" d="M826.617649 143.993868c0 0-2.59524-22.631256-36.943552-18.718709-10.931588 1.242558-22.575694 18.718709-22.575694 18.718709-19.925091 127.556717-119.422232 224.623505-239.485629 224.623505-120.062198 0-219.559938-97.066989-239.485229-224.623505 0 0-4.588689-17.220325-22.575694-18.718709-42.007319-3.51042-36.943552 18.718709-36.943552 18.718709 3.857185 117.100806 79.169923 216.707472 185.156864 259.007793-55.460997 36.906777-92.057985 99.917256-92.057985 171.51991 0 113.719298 92.185698 205.904996 205.904996 205.904996S733.517171 688.240869 733.517171 574.52157c0-71.602454-36.595588-134.613132-92.057385-171.51991C747.446927 360.70134 822.759865 261.094674 826.617649 143.993868zM677.362244 574.52237c0 82.698331-67.05054 149.74907-149.74967 149.74907-82.697731 0-149.74927-67.05054-149.74927-149.74907s67.05054-149.748271 149.74927-149.748271C610.311705 424.774099 677.362244 491.823839 677.362244 574.52237z"  horiz-adv-x="1024" />

    
    <glyph glyph-name="dongman" unicode="&#58887;" d="M988.672 696.64c-40.32 52.608-106.816 77.696-172.928 66.304-57.472-10.176-102.4-46.464-126.08-97.28C585.28 708.48 458.56 709.44 333.504 667.968c-24.96 51.648-71.744 87.552-130.688 96C136.384 773.248 70.72 745.92 32.192 692.032c-39.168-56.256-41.344-128.512-6.016-188.8C52.992 457.6 96.384 428.416 145.216 419.328 144.576 417.344 143.936 415.36 143.36 413.312 141.696 407.424 140.16 401.472 138.752 395.52s-2.688-12.032-3.84-18.112S132.8 365.12 131.968 358.912C131.072 352.768 130.368 346.496 129.792 340.224S128.768 327.616 128.448 321.216C128.128 314.88 128 308.416 128 302.016c0-27.648 2.688-54.592 7.808-80.64 5.12-25.984 12.672-51.136 22.4-75.072 9.664-23.936 21.568-46.656 35.392-67.968 13.824-21.248 29.504-41.152 46.912-59.2 17.344-18.048 36.352-34.432 56.832-48.896 20.416-14.4 42.24-26.752 65.216-36.864s47.104-17.984 72.064-23.296S485.504-97.984 512-97.984s52.416 2.816 77.44 8.128c25.024 5.312 49.088 13.184 72.064 23.296s44.8 22.528 65.28 36.864c20.352 14.464 39.424 30.784 56.832 48.896 17.344 18.048 33.088 37.952 46.784 59.2 13.824 21.312 25.728 44.032 35.456 67.968s17.28 49.088 22.4 75.072C893.312 247.424 896 274.368 896 302.016c0 6.464-0.128 12.864-0.448 19.2-0.32 6.4-0.832 12.736-1.344 19.008s-1.344 12.544-2.176 18.688-1.856 12.352-3.008 18.432-2.368 12.096-3.84 18.112c-1.344 6.016-2.944 11.968-4.544 17.856-0.576 2.112-1.28 4.096-1.856 6.144 50.88 9.408 95.808 40.256 122.112 88.576C1034.24 569.536 1029.696 641.664 988.672 696.64zM944.64 538.688c-16.768-30.784-38.784-55.872-86.72-58.368-17.344-0.896-36.864-13.312-39.872-35.328-1.344-10.048 1.856-27.712 3.072-31.232 1.92-5.824 3.84-11.712 5.504-17.664s3.2-12.032 4.608-18.112 2.624-12.288 3.712-18.496 1.984-12.48 2.688-18.816 1.28-12.736 1.6-19.136 0.576-12.928 0.576-19.52c0-23.68-2.304-46.784-6.656-69.184s-10.816-43.968-19.136-64.512-18.432-40.128-30.272-58.368c-11.84-18.304-25.216-35.328-40.064-50.88-14.784-15.552-31.04-29.632-48.512-41.984s-36.096-23.04-55.68-31.744-40.192-15.488-61.44-20.032C556.672-39.36 534.592-41.728 512-41.728s-44.672 2.368-65.984 6.976c-21.312 4.544-41.92 11.392-61.504 20.032s-38.208 19.392-55.68 31.744S295.168 43.52 280.32 59.072s-28.224 32.576-40 50.88c-11.84 18.24-21.952 37.824-30.272 58.368-8.256 20.544-14.72 42.112-19.136 64.512-4.352 22.4-6.656 45.504-6.656 69.184 0 6.592 0.192 13.056 0.576 19.52s0.96 12.8 1.664 19.136S188.096 353.28 189.184 359.488s2.304 12.416 3.648 18.496 2.944 12.16 4.608 18.112 5.12 24.064 9.408 36.224C215.36 456.512 201.024 480 174.016 479.36 123.264 478.208 99.136 505.344 81.408 535.616c-17.664 30.208-26.24 77.44 3.008 119.552 24.448 34.048 66.688 51.84 109.376 45.44 41.728-5.952 74.56-32.896 88.512-71.68 9.664-26.88 47.04-16.384 49.728-14.272 126.592 46.336 255.744 45.184 356.672-3.136C704 603.968 732.992 601.984 740.736 625.344c12.992 39.168 44.544 67.264 86.144 74.56 42.496 7.744 85.248-8.64 110.784-41.856C968.32 616.96 961.344 569.408 944.64 538.688z"  horiz-adv-x="1024" />

    
    <glyph glyph-name="guanji" unicode="&#59082;" d="M778.340887 693.217734q45.399015-32.283744 80.70936-73.142857t60.53202-88.275862 38.336946-100.382266 13.115271-107.444335q0-93.824631-35.814778-176.047291t-96.851232-143.259113-143.259113-96.851232-176.047291-35.814778q-92.815764 0-175.038424 35.814778t-143.763547 96.851232-96.851232 143.259113-35.310345 176.047291q0 53.469951 12.610837 104.922167t35.814778 97.860099 57.505419 86.762562 76.673892 72.638424q22.195074 16.141872 47.921182 12.106404t41.86798-25.221675 12.106404-47.416749-25.221675-42.372414q-63.558621-46.407882-97.355665-114.00197t-33.797044-145.276847q0-66.585222 25.221675-125.603941t69.107389-102.904433 102.904433-69.611823 125.603941-25.726108 125.603941 25.726108 102.904433 69.611823 69.611823 102.904433 25.726108 125.603941q0 78.691626-36.319212 148.807882t-101.895567 115.515271q-22.195074 15.133005-26.734975 41.363547t10.593103 48.425616q15.133005 21.186207 41.363547 25.726108t48.425616-10.593103zM519.062069 320.945813q-26.230542 0-44.894581 18.664039t-18.664039 44.894581l0 383.369458q0 26.230542 18.664039 45.399015t44.894581 19.168473q27.239409 0 45.903448-19.168473t18.664039-45.399015l0-383.369458q0-26.230542-18.664039-44.894581t-45.903448-18.664039z"  horiz-adv-x="1024" />

    
    <glyph glyph-name="qingtian" unicode="&#58935;" d="M704.838983 575.859679c-52.244898 52.244898-121.707946 81.017198-195.5927 81.017198-73.885777 0-143.347802-28.7723-195.593723-81.017198-52.244898-52.244898-81.017198-121.707946-81.017198-195.5927 0-73.884754 28.7723-143.347802 81.017198-195.593723 52.244898-52.244898 121.707946-81.017198 195.593723-81.017198 73.884754 0 143.347802 28.7723 195.5927 81.017198 52.244898 52.245921 81.017198 121.708969 81.017198 195.593723C785.856182 454.151733 757.083881 523.613758 704.838983 575.859679zM509.246283 165.054429c-118.668727 0-215.21255 96.543823-215.21255 215.21255 0 118.667703 96.543823 215.211527 215.21255 215.211527 118.667703 0 215.211527-96.543823 215.211527-215.211527C724.45781 261.598252 627.913986 165.054429 509.246283 165.054429zM512.798179 696.736701c16.954137 0 30.699186 13.745049 30.699186 30.699186L543.497365 802.388972c0 16.954137-13.745049 30.699186-30.699186 30.699186s-30.699186-13.745049-30.699186-30.699186l0-74.953086C482.098993 710.481749 495.844042 696.736701 512.798179 696.736701zM512.798179 65.33631c-16.954137 0-30.699186-13.745049-30.699186-30.699186l0-69.832462c0-16.954137 13.745049-30.699186 30.699186-30.699186s30.699186 13.745049 30.699186 30.699186l0 69.832462C543.497365 51.591261 529.752316 65.33631 512.798179 65.33631zM197.265806 655.935436l55.483662-45.24446c5.698792-4.647857 12.561084-6.90834 19.382443-6.90834 8.906857 0 17.742083 3.858888 23.809265 11.299347 10.715039 13.139252 8.749268 32.477692-4.391007 43.191708l-55.483662 45.24446c-13.139252 10.716063-32.477692 8.750291-43.191708-4.391007C182.160783 685.987892 184.126554 666.650475 197.265806 655.935436zM785.392624 154.417161c-11.990079 11.989055-31.425733 11.988032-43.415812 0.001023-11.989055-11.989055-11.989055-31.426757-0.001023-43.415812L787.220249 65.757912c5.995551-5.994528 13.850449-8.991792 21.708418-8.991792 7.855922 0 15.712867 2.998287 21.707394 8.990768 11.989055 11.989055 11.989055 31.426757 0.001023 43.415812L785.392624 154.417161zM209.896474 383.595794c0 16.954137-13.745049 30.699186-30.699186 30.699186L94.005001 414.29498c-16.954137 0-30.699186-13.745049-30.699186-30.699186s13.745049-30.699186 30.699186-30.699186l85.192288 0C196.152449 352.896608 209.896474 366.641657 209.896474 383.595794zM931.590334 414.29498l-85.192288 0c-16.954137 0-30.699186-13.745049-30.699186-30.699186s13.745049-30.699186 30.699186-30.699186l85.192288 0c16.954137 0 30.699186 13.745049 30.699186 30.699186S948.544471 414.29498 931.590334 414.29498zM240.203734 154.417161l-45.24446-45.245484c-11.989055-11.989055-11.988032-31.426757 0-43.414789 5.994528-5.994528 13.850449-8.991792 21.707394-8.991792s15.712867 2.997264 21.707394 8.991792l45.24446 45.245484c11.989055 11.989055 11.988032 31.426757 0 43.414789C271.630491 166.40724 252.192789 166.40724 240.203734 154.417161zM753.445004 593.543434c7.856945 0 15.712867 2.997264 21.707394 8.991792l55.483662 55.484685c11.989055 11.988032 11.989055 31.425733 0 43.414789-11.988032 11.989055-31.426757 11.988032-43.414789 0l-55.483662-55.484685c-11.989055-11.988032-11.989055-31.425733 0-43.414789C737.732138 596.540697 745.588059 593.543434 753.445004 593.543434z"  horiz-adv-x="1024" />

    
    <glyph glyph-name="riqi" unicode="&#59093;" d="M544 435.2C492.8 435.2 512 371.2 448 358.4L428.8 352C396.8 345.6 390.4 345.6 390.4 320s12.8-32 25.6-32l76.8 0 0-211.2c0-32 6.4-51.2 38.4-51.2s38.4 25.6 38.4 51.2l0 320C563.2 428.8 550.4 435.2 544 435.2L544 435.2zM294.4 646.4l12.8 0c19.2 0 32 12.8 32 32L339.2 832c0 19.2-12.8 32-32 32L294.4 864C275.2 864 262.4 851.2 262.4 832l0-160C262.4 659.2 275.2 646.4 294.4 646.4L294.4 646.4zM704 646.4l12.8 0c19.2 0 32 12.8 32 32L748.8 832c0 19.2-12.8 32-32 32L704 864c-19.2 0-32-12.8-32-32l0-160C672 659.2 691.2 646.4 704 646.4L704 646.4zM883.2 787.2l-83.2 0 0-57.6 83.2 0c38.4 0 70.4-32 70.4-70.4l0-64-896 0 0 64c0 38.4 32 70.4 70.4 70.4l83.2 0L211.2 787.2 134.4 787.2C57.6 787.2 0 723.2 0 652.8l0-614.4c0-70.4 57.6-134.4 134.4-134.4l755.2 0c70.4 0 134.4 57.6 134.4 134.4L1024 652.8C1017.6 723.2 960 787.2 883.2 787.2L883.2 787.2zM883.2-32 134.4-32C96-32 64 0 64 38.4L64 531.2l896 0 0-492.8C960 0 928-32 883.2-32L883.2-32zM384 787.2l256 0 0-57.6L384 729.6 384 787.2 384 787.2z"  horiz-adv-x="1024" />

    
    <glyph glyph-name="tuichu" unicode="&#58916;" d="M816.718 712.278l0 59.597c0 32.78-26.08 59.6-57.74 59.6L124.6 831.475c-32.037 0-57.74-26.82-57.74-59.6l0-774.783c0-32.78 25.705-59.595 57.74-59.595l634.378 0c31.66 0 57.74 26.815 57.74 59.595l0 59.6L181.964 56.692 181.964 712.278 816.718 712.278zM960.877 384.486 701.238 652.678l0-178.795L355.179 473.883l0-178.797 346.059 0 0-178.795L960.877 384.486z"  horiz-adv-x="1024" />

    
    <glyph glyph-name="tianqi" unicode="&#58977;" d="M864.256 352.256v64h128v-64h-128z m-125.952 303.104l90.624 90.624 45.056-45.056-90.624-90.624-45.056 45.056zM512 128c-141.312 0-256 114.688-256 256s114.688 256 256 256 256-114.688 256-256-114.688-256-256-256z m0 448.512c-106.496 0-192.512-86.016-192.512-192.512s86.016-192.512 192.512-192.512 192.512 86.016 192.512 192.512-86.016 192.512-192.512 192.512z m-31.744 287.744h64v-128h-64v128z m-330.24-163.328l45.056 45.056 90.624-90.624-45.056-45.056-90.624 90.624z m9.728-348.672h-128v64h128v-64z m125.952-239.616l-90.624-90.624-45.056 45.056 90.624 90.624 45.056-45.056z m258.048-208.896h-64v128h64v-128z m330.24 163.328l-45.056-45.056-90.624 90.624 45.056 45.056 90.624-90.624z"  horiz-adv-x="1024" />

    
    <glyph glyph-name="duigou" unicode="&#59654;" d="M1438.057963 814.224402A127.092908 127.092908 0 0 1 1259.003476 828.364766L491.249868 174.415531l-243.878684 257.252402A127.092908 127.092908 0 1 1 62.779808 256.78741l326.846843-344.990804a126.752177 126.752177 0 0 1 174.710158-9.199755l859.495607 732.232333a127.348457 127.348457 0 0 1 14.225547 179.310035z"  horiz-adv-x="1533" />

    
    <glyph glyph-name="yinliang" unicode="&#58891;" d="M528.2-41.4c-6 0-11.9 2-16.8 5.9L226.3 195.3H89.7C75 195.3 63 207.3 63 222V558c0 14.7 11.9 26.6 26.6 26.6h137L512 802.7c8.1 6 18.9 7.2 28 2.7 9.1-4.5 14.8-13.7 14.8-23.9v-796.3c0-10.3-5.9-19.6-15.2-24-3.6-1.8-7.5-2.6-11.4-2.6z m-411.9 290h119.4c6.1 0 12-2.1 16.8-5.9l249.1-201.6V727.6L251.9 536.8c-4.7-3.5-10.3-5.5-16.2-5.5H116.3v-282.7z m603.8-70.1C774.8 233.2 805 306 805 383.3s-30.2 150.2-84.9 204.9c-10.4 10.4-27.3 10.4-37.7 0-10.4-10.4-10.4-27.3 0-37.7 44.6-44.6 69.3-104 69.3-167.2s-24.6-122.5-69.3-167.2c-10.4-10.4-10.4-27.3 0-37.7 5.2-5.2 12-7.8 18.8-7.8 6.9 0.1 13.7 2.7 18.9 7.9z m109.1-109.1c173.1 173.1 173.1 454.8 0 627.9-10.4 10.4-27.3 10.4-37.7 0-10.4-10.4-10.4-27.3 0-37.7 152.4-152.4 152.4-400.2 0-552.6-10.4-10.4-10.4-27.3 0-37.7 5.2-5.2 12-7.8 18.8-7.8s13.7 2.7 18.9 7.9z"  horiz-adv-x="1024" />

    
    <glyph glyph-name="leizhenyu" unicode="&#58968;" d="M203.53 490.052h-79.477c-51.805 0-93.966 43.459-93.966 96.875 0 53.433 42.162 96.892 93.966 96.892 3.457 0 7.228-0.27 11.893-0.861L151.229 681l1.538 15.73c9.445 95.998 87.218 168.384 180.936 168.384 40.689 0 79.096-14.244 110.093-38.666 6.699 7.764 13.712 15.122 21.122 21.957C428.099 878.396 381.984 895.999 333.703 895.999c-104.618 0-191.604-75.897-208.922-181.295h-0.728C55.658 714.704 0 657.372 0 586.926s55.659-127.761 124.053-127.761h80.171c-0.711 6.396-1.191 12.861-1.191 19.476 0 3.848 0.248 7.628 0.496 11.409z m741.557 224.332a182.32 182.32 0 0 1-39.664-4.371C863.807 809.268 766.715 875.477 661.65 875.477c-131.099 0-240.117-95.12-261.835-227.218h-0.91c-85.729 0-155.48-71.846-155.48-160.148s69.751-160.114 155.48-160.114h546.182c103.394 0 187.519 86.665 187.519 193.194s-84.125 193.194-187.519 193.194z m149.807-193.194c0-85.196-67.187-154.494-149.807-154.494H398.905c-64.938 0-117.768 54.463-117.768 121.415 0 66.969 52.83 121.449 117.768 121.449 4.334 0 9.064-0.354 14.886-1.08l19.17-2.464 1.919 19.713c11.843 120.318 109.332 211.05 226.769 211.05 96.083 0 182.309-62.834 214.579-156.368l6.103-17.654 17.384 5.688c14.754 4.793 30.021 7.223 45.37 7.223 82.619 0 149.807-69.298 149.807-154.477zM401.536 221.434c15.879-29.569 31.758-59.155 47.653-88.74 11.049-20.59 41.913-2.211 30.848 18.413-15.879 29.569-31.758 59.155-47.653 88.74-11.049 20.573-41.913 2.194-30.848-18.413z m542.923 0c15.879-29.569 31.774-59.155 47.653-88.74 11.049-20.59 41.93-2.211 30.864 18.413-15.895 29.569-31.774 59.155-47.653 88.74-11.066 20.573-41.93 2.194-30.864-18.413z m-39.879-97.433c15.879-29.586 31.758-59.172 47.653-88.757 11.049-20.573 41.913-2.194 30.848 18.413a239917.646 239917.646 0 0 1-47.653 88.741c-11.049 20.59-41.913 2.211-30.848-18.396zM131.43 339.49c15.895-29.586 31.774-59.172 47.653-88.758 11.049-20.573 41.93-2.194 30.864 18.413-15.879 29.586-31.774 59.155-47.653 88.741-11.049 20.59-41.93 2.211-30.864-18.396z m145.49-104.825c15.879-29.586 31.758-59.155 47.653-88.741 11.049-20.59 41.913-2.211 30.848 18.396-15.879 29.586-31.758 59.172-47.653 88.757-11.049 20.59-41.913 2.194-30.848-18.413z m-41.616-118.039c15.879-29.586 31.758-59.172 47.653-88.757 11.049-20.573 41.93-2.194 30.848 18.413-15.879 29.586-31.758 59.172-47.636 88.74-11.066 20.59-41.93 2.211-30.864-18.396z m166.232-20.354c15.879-29.569 31.758-59.155 47.653-88.74 11.049-20.59 41.913-2.211 30.848 18.413-15.879 29.569-31.758 59.155-47.653 88.74-11.049 20.59-41.913 2.194-30.848-18.413z m420.126 1.181h-57.561c-7.625 0-14.704-3.865-18.939-10.363a23.638 23.638 0 0 1-2.068-21.839l54.038-131.879-220.037 238.087h55.08c8.303 0 15.962 4.624 19.948 12.05a23.636 23.636 0 0 1-0.744 23.662l-54.401 87.272h-33.891l58.47-93.804h-57.941c-9.097 0-17.318-5.519-20.907-14.025-3.606-8.523-1.902-18.396 4.334-25.147l251.216-271.825c4.499-4.877 10.437-7.392 16.491-7.392 4.267 0 8.584 1.249 12.471 3.831 9.378 6.211 12.935 17.907 8.618 28.455l-62.986 153.735h57.974c7.84 0 15.035 4.051 19.237 10.801 4.185 6.751 4.714 15.105 1.373 22.312l-88.839 193.059h-31.576l90.642-196.991z"  horiz-adv-x="1133" />

    
    <glyph glyph-name="zhineng" unicode="&#58974;" d="M890.112 513.523c0 165.285-151.985 299.244-339.487 299.244-94.095 0-179.272-33.803-240.732-88.33-37.995-28.835-68.872-66.019-86.34-111.95-10.322-27.203-19.315-63.728-19.712-93.05-0.567-36.588 17.39-72.42 1.579-108.035-10.996-24.912-39.577-46-57.964-65.866 0 0-51.46-34.126 46.727-38.778 2.768-0.122 15.196-58.624 18.293-72.002-1.95-2.668-3.097-5.53-3.097-10.134 0-11.215 14.172-20.369 31.61-20.369h10.654c-23.032-3.12-39.64-12.11-39.64-24.509 0-8.577 10.912-19.89 27.254-26.68 0 0-20.144-65.002 9.737-79.339 5.13-2.23 11.73-2.915 20.136-1.47 42.405-2.307 118.295 0.7 160.498 0.7 0 0.77 22.2-117.647 22.2-117.647h381.289c0-0.606-36.645 272.492-36.645 272.492 67.085 95.738 90.318 181.44 91.577 253.071 1.338 10.727 2.063 21.575 2.063 32.652z m-200.92 50.717c-27.528 0-51.098 16.27-62.106 39.62l-51.481-29.722c6.443-13.471 10.352-28.379 10.352-44.31 0-21.255-6.452-40.992-17.464-57.41l96.581-55.76c6.213 6.12 14.71 9.934 24.119 9.934 19.003 0 34.411-15.408 34.411-34.412 0-19.006-15.408-34.411-34.411-34.411-19.006 0-34.412 15.405-34.412 34.411 0 3.353 1.012 6.388 1.907 9.452l-99.238 57.294c-18.812-19.822-45.243-32.334-74.728-32.334-57.015 0-103.235 46.22-103.235 103.235s46.22 103.235 103.235 103.235c34.92 0 65.66-17.449 84.343-43.988l54.565 31.502c-0.746 4.063-1.26 8.21-1.26 12.486 0 38.01 30.81 68.824 68.823 68.824 38.01 0 68.823-30.814 68.823-68.824s-30.814-68.822-68.823-68.822z"  horiz-adv-x="1024" />

    
    <glyph glyph-name="bofang1" unicode="&#58973;" d="M832.994207 446.700083L266.44331 811.345766C141.529662 891.742962 146.273219 762.937166 146.273219 762.937166V4.454686s-2.189334-122.602684 103.628459-54.490082L837.251244 327.989547s93.898088 55.463119-4.257037 118.710536z"  horiz-adv-x="1024" />

    
    <glyph glyph-name="shangchuan" unicode="&#58960;" d="M525.824 454.144c-4.096 4.096-8.704 5.632-13.824 5.632-5.12 0-10.24-2.048-13.824-5.632l-186.368-186.368c-7.68-7.68-7.68-19.968 0-28.16 7.68-7.68 19.968-7.68 28.16 0l152.576 152.576V66.56c0-10.752 8.704-19.968 19.968-19.968 10.752 0 19.968 8.704 19.968 19.968v326.144l152.576-152.576c7.68-7.68 19.968-7.68 28.16 0 7.68 7.68 7.68 19.968 0 28.16l-187.392 185.856zM802.304 391.168c4.096 18.944 6.144 38.912 6.144 58.368 0 159.232-129.024 288.256-288.256 288.256-157.184 0-284.672-125.952-287.744-282.112-103.424-15.872-181.248-105.472-181.248-211.456 0-118.272 95.744-214.016 214.016-214.016h91.136c9.216 0 16.384 7.168 16.384 16.384s-7.168 16.384-16.384 16.384h-91.136c-99.84 0-181.248 80.896-181.248 181.248 0 90.624 67.072 166.912 155.648 179.2 1.024 0 2.56 0.512 3.584 1.024 2.048-0.512 4.096-1.024 6.144-1.024 9.216 0.512 16.384 8.192 15.872 16.896v9.728c0 140.8 114.176 254.976 254.976 254.976s254.976-114.176 254.976-254.976c0-23.04-3.072-46.08-9.216-68.096-1.536-6.144 0.512-12.8 5.12-16.896 3.072-3.584 7.68-5.632 12.288-5.632 86.528 0 156.16-70.144 156.16-156.16 0-58.88-44.032-123.904-91.136-123.904h-339.456c-9.216 0-16.384-7.168-16.384-16.384 0-9.216 7.168-16.384 16.384-16.384H848.384c68.608 0 124.416 81.92 124.416 156.672 0 97.792-74.752 178.688-170.496 187.904z"  horiz-adv-x="1024" />

    
    <glyph glyph-name="xunlian" unicode="&#58988;" d="M782.620444 763.733333h-84.764444v26.168889H619.008C606.094222 844.970667 559.331556 896 500.736 896 442.026667 896 391.964444 844.970667 378.936889 789.902222H300.316444v-26.168889H241.379556C155.306667 763.733333 85.333333 697.400889 85.333333 610.872889v-544.540445c0-86.528 69.973333-157.013333 156.046223-157.013333h541.240888A156.728889 156.728889 0 0 1 938.666667 66.332444V610.872889c0 86.528-69.973333 152.860444-156.046223 152.860444z m-351.288888-25.713777v33.052444c0 37.091556 32.540444 72.248889 69.404444 72.248889s64.284444-35.157333 64.284444-72.248889v-32.995556h79.644445v-134.542222H350.947556V738.019556h80.440888z m303.047111-230.968889a28.615111 28.615111 0 0 1-39.594667-8.817778L489.073778 172.942222l-134.257778 108.088889a28.558222 28.558222 0 0 1-40.277333-4.494222 29.013333 29.013333 0 0 1 4.437333-40.561778l159.232-128.113778a28.444444 28.444444 0 0 1 42.040889 7.054223l222.890667 352.369777a29.013333 29.013333 0 0 1-8.760889 39.822223z m149.504-440.718223c0-54.727111-46.762667-103.480889-101.262223-103.480888H241.379556c-54.442667 0-105.415111 48.753778-105.415112 103.480888V610.872889c0 54.784 50.972444 99.328 105.415112 99.328h58.88v-160.199111h397.539555V710.200889h84.821333c54.499556 0 101.262222-44.544 101.262223-99.328v-544.540445z"  horiz-adv-x="1024" />

    
    <glyph glyph-name="xiazai1" unicode="&#58928;" d="M1064.064-83.072a44.736 44.736 0 0 0-44.672-44.736H86.144a44.736 44.736 0 1 0 0 89.472h933.248c24.704 0 44.672-20.032 44.672-44.736zM552.704 43.136a44.736 44.736 0 0 0-44.736 44.736V850.752a44.736 44.736 0 0 0 89.344 0v-762.88a44.736 44.736 0 0 0-44.608-44.8zM584.32 56.512a44.672 44.672 0 0 0-63.232 0l-335.36 335.744a44.672 44.672 0 1 0 63.168 63.296l335.36-335.744a44.8 44.8 0 0 0 0-63.36zM521.088 56.512a44.8 44.8 0 0 0 0 63.296l335.36 335.744a44.8 44.8 0 0 0 63.168-63.296l-335.36-335.744a44.608 44.608 0 0 0-63.168 0z"  horiz-adv-x="1088" />

    
    <glyph glyph-name="dongman1" unicode="&#58913;" d="M911.941 461.252c11.453-36.715 18.316-73.864 19.739-109.927C941.741 96.655 743.513-128 511.421-128c-232.12 0-426.309 224.494-420.289 479.325 0.902 37.93 7.105 75.419 17.209 111.715C44.322 502.605 0.985 577.792 0.985 664.227c0 127.46 94.092 230.8 210.159 230.8 79.082 0 147.876-48.046 183.732-118.924 36.919 12.104 75.922 19.055 116.544 19.055 40.433 0 79.236-7.393 115.885-20.455C662.941 846.386 732.205 895.027 811.837 895.027c116.046 0 210.137-103.34 210.137-230.8 0-87.65-44.494-163.907-110.033-202.975zM811.456 795.207c-51.959 0-96.013-36.451-112.556-87.209-2.933-24.216-21.602-42.939-44.45-42.939-7.464 0-14.4 2.182-20.589 5.7 0-0.046-0.044-0.128-0.044-0.176-37.72 16.518-78.84 25.691-121.956 25.691-43.146 0-84.339-9.125-122.11-25.666 0 0.055-0.022 0.105-0.022 0.151-6.211-3.518-13.147-5.7-20.612-5.7-22.636 0-41.165 18.384-44.376 42.238-0.308-0.185-0.682-0.267-0.99-0.443-16.264 51.389-60.647 88.354-112.98 88.354-66.096 0-119.683-58.854-119.683-131.446 0-57.139 33.283-105.652 79.646-123.748-0.095-0.199-0.139-0.435-0.234-0.645 22.306-2.93 39.707-23.571 39.707-48.874 0-8.271-2.009-15.945-5.287-22.791 0.022 0 0.044-0.025 0.066-0.025-15.039-41.481-23.369-86.716-23.369-134.111 0-200.317 147.87-362.721 330.246-362.721 182.405 0 330.259 162.403 330.259 362.721 0 47.361-8.389 92.525-23.377 133.983-3.3 6.869-5.353 14.625-5.353 22.944 0 25.303 17.319 45.919 39.626 48.874-0.162 0.34-0.235 0.75-0.396 1.087 45.799 18.459 78.518 66.635 78.518 123.305-0.001 72.593-53.588 131.446-119.684 131.446z"  horiz-adv-x="1024" />

    
    <glyph glyph-name="xia" unicode="&#58893;" d="M632.009 375.537l-383.436-372.786 91.747-75.264 446.921 451.587-473.978 444.55-76.432-84.673z"  horiz-adv-x="1024" />

    
    <glyph glyph-name="bofang2" unicode="&#58915;" d="M139.7 831.1v-894.2L884.3 384z"  horiz-adv-x="1024" />

    
    <glyph glyph-name="wenzhang" unicode="&#58995;" d="M678.9 797.4H217.4c-33.9 0-61.4-26.2-61.4-58.5v-715.7c0-32.2 27.5-58.5 61.4-58.5h584.4c33.9 0 61.4 26.2 61.4 58.5V591.5L678.9 797.4z m103-204.8H658.4v138l123.5-138z m8.1-564.8H230.4c-5.7 0-10.1 3.8-10.1 7.2V727.9c0 3.4 4.3 7.2 10.1 7.2h380.3v-151c0-27.8 22.6-50.3 50.3-50.3h139V35c0-3.4-4.3-7.2-10-7.2z m-0.2 0M557 544c0-17.7-14.3-32-32-32H352c-17.7 0-32 14.3-32 32s14.3 32 32 32h173c17.6 0 32-14.3 32-32z m150.5-159c0-17.7-14.3-32-32-32h-321c-17.7 0-32 14.3-32 32s14.3 32 32 32h321c17.6 0 32-14.3 32-32z m0-159c0-17.7-14.3-32-32-32h-321c-17.7 0-32 14.3-32 32s14.3 32 32 32h321c17.6 0 32-14.4 32-32z"  horiz-adv-x="1024" />

    
    <glyph glyph-name="wendangguanli" unicode="&#59060;" d="M499.2 678.4c-29.866667 38.4-89.6 68.266667-136.533333 68.266667h-170.666667c-46.933333 0-85.333333-38.4-85.333333-85.333334v-42.666666h435.2l-42.666667 59.733333zM832 576h-725.333333v-469.333333c0-46.933333 38.4-85.333333 85.333333-85.333334h640c46.933333 0 85.333333 38.4 85.333333 85.333334v384c0 46.933333-38.4 85.333333-85.333333 85.333333z"  horiz-adv-x="1024" />

    
    <glyph glyph-name="dengluzhuce-yonghuda" unicode="&#58958;" d="M378.624 311.9872A307.2 307.2 0 0 0 204.8 588.8C204.8 758.4512 342.3488 896 512 896s307.2-137.5488 307.2-307.2a307.2 307.2 0 0 0-173.824-276.8128C820.48 255.6672 947.2 91.4432 947.2-102.4a25.6 25.6 0 0 0-51.2 0c0 212.0704-171.9296 384-384 384-212.0704 0-384-171.9296-384-384a25.6 25.6 0 0 0-51.2 0c0 193.8432 126.72 358.0672 301.824 414.3872zM512 332.8c141.3888 0 256 114.6112 256 256S653.3888 844.8 512 844.8 256 730.1888 256 588.8s114.6112-256 256-256z"  horiz-adv-x="1024" />

    
    <glyph glyph-name="danganguanli1" unicode="&#58897;" d="M847.6-63.6 353.9-63.6c0 0 0 0-0.1 0L177.4-63.6c-61.5 0-111.4 52.3-111.4 116.9l0 526c0 64.6 49.9 116.9 111.4 116.9l66.9 0 0 23.6c0 61.8 49.1 111.9 109.7 111.9l493.7 0c60.6 0 109.7-50.1 109.7-111.9l0-671.5C957.3-13.5 908.2-63.6 847.6-63.6zM244.3 577.1c0 16.4-19.9 29.8-44.6 29.8-24.6 0-44.6-13.3-44.6-29.8l0-476.8c0-16.4 20-29.8 44.6-29.8 24.6 0 44.6 13.3 44.6 29.8L244.3 577.1zM868.5 682.6c0 33-26.6 59.7-59.5 59.7L392.5 742.3c-32.9 0-59.5-26.7-59.5-59.7l0-596.9c0-33 26.6-59.7 59.5-59.7l416.5 0c32.9 0 59.5 26.7 59.5 59.7L868.5 682.6zM466.4 249.7l267.3 0 0-89.5L466.4 160.2 466.4 249.7zM466.4 428.8l267.3 0 0-89.5L466.4 339.3 466.4 428.8zM466.4 607.8l267.3 0 0-89.5L466.4 518.3 466.4 607.8z"  horiz-adv-x="1024" />

    
    <glyph glyph-name="left" unicode="&#58895;" d="M391.991 392.463l383.436 372.786-91.747 75.264-446.921-451.587 473.978-444.55 76.432 84.673z"  horiz-adv-x="1024" />

    
    <glyph glyph-name="zhuce1" unicode="&#58880;" d="M801.129412-85.835294H219.858824c-99.388235 0-177.694118 78.305882-177.694118 177.694118V676.141176C42.164706 775.529412 120.470588 853.835294 219.858824 853.835294h394.541176c18.070588 0 33.129412-15.058824 33.129412-33.129412 0-18.070588-15.058824-33.129412-33.129412-33.129411H219.858824c-63.247059 0-114.447059-51.2-114.447059-114.447059v-587.294118c0-63.247059 51.2-114.447059 114.447059-114.447059h584.282352c63.247059 0 114.447059 51.2 114.447059 114.447059V444.235294c0 18.070588 15.058824 33.129412 33.129412 33.129412 18.070588 0 33.129412-15.058824 33.129412-33.129412v-352.37647c-6.023529-99.388235-84.329412-177.694118-183.717647-177.694118z m0 614.4c9.035294-9.035294 9.035294-9.035294 0-21.082353-114.447059-114.447059-228.894118-225.882353-340.329412-340.329412-3.011765-3.011765-9.035294-6.023529-12.047059-9.035294-69.270588-18.070588-141.552941-39.152941-210.823529-57.223529-3.011765 0-6.023529-3.011765-6.02353 3.011764 3.011765 6.023529 3.011765 12.047059 6.02353 18.070589 18.070588 63.247059 36.141176 129.505882 54.211764 195.764705 3.011765 6.023529 6.023529 12.047059 12.047059 18.070589L644.517647 676.141176c6.023529 6.023529 6.023529 6.023529 15.058824 0 42.164706-51.2 93.364706-99.388235 141.552941-147.57647z m-84.329412 0c3.011765 3.011765 6.023529 6.023529 0 12.047059-18.070588 18.070588-33.129412 36.141176-54.211765 51.2-3.011765 3.011765-6.023529 3.011765-9.035294 0l-27.105882-27.105883c-93.364706-93.364706-186.729412-186.729412-283.105883-280.094117-9.035294-9.035294-18.070588-21.082353-21.082352-36.141177-6.023529-21.082353-12.047059-39.152941-15.058824-60.235294 0-6.023529 3.011765-3.011765 6.023529-3.011765 24.094118 6.023529 45.176471 12.047059 69.270589 18.070589 6.023529 3.011765 12.047059 6.023529 15.058823 9.035294l189.741177 189.741176c45.176471 42.164706 87.341176 84.329412 129.505882 126.494118z m265.035294 219.858823v-9.035294c0-33.129412-12.047059-60.235294-33.129412-81.317647-27.105882-27.105882-54.211765-54.211765-81.317647-84.329412-3.011765-3.011765-6.023529-3.011765-9.035294 0-33.129412 33.129412-69.270588 66.258824-102.4 99.388236-18.070588 18.070588-36.141176 33.129412-54.211765 51.2-6.023529 3.011765-3.011765 6.023529 0 12.047059l84.329412 84.329411c21.082353 21.082353 51.2 33.129412 81.317647 33.129412 63.247059 0 108.423529-48.188235 114.447059-105.411765zM903.529412 694.211765c12.047059 12.047059 15.058824 24.094118 18.070588 42.164706v6.023529c-3.011765 30.117647-27.105882 54.211765-57.223529 54.211765-15.058824 0-30.117647-6.023529-39.152942-18.070589L783.058824 736.376471c-3.011765-3.011765-3.011765-3.011765 0-6.02353 9.035294-9.035294 18.070588-18.070588 27.105882-24.094117L861.364706 655.058824c3.011765-3.011765 3.011765-3.011765 6.023529 0 9.035294 12.047059 24.094118 27.105882 36.141177 39.152941zM801.129412-97.882353H219.858824C114.447059-97.882353 30.117647-13.552941 30.117647 91.858824V676.141176C30.117647 781.552941 114.447059 865.882353 219.858824 865.882353h394.541176c24.094118 0 42.164706-21.082353 42.164706-42.164706s-21.082353-42.164706-42.164706-42.164706H219.858824c-57.223529 0-105.411765-48.188235-105.411765-105.411765v-587.294117c0-57.223529 48.188235-105.411765 105.411765-105.411765h584.282352c57.223529 0 105.411765 48.188235 105.411765 105.411765V444.235294c0 24.094118 21.082353 42.164706 42.164706 42.164706s42.164706-18.070588 42.164706-42.164706v-352.37647c-3.011765-105.411765-87.341176-189.741176-192.752941-189.741177zM219.858824 844.8c-93.364706 0-165.647059-75.294118-165.647059-168.658824v-584.282352c0-93.364706 75.294118-168.658824 165.647059-168.658824h584.282352c93.364706 0 165.647059 72.282353 168.658824 168.658824V444.235294c0 12.047059-12.047059 21.082353-21.082353 21.082353-12.047059 0-21.082353-12.047059-21.082353-21.082353v-355.388235c0-69.270588-57.223529-126.494118-126.494118-126.494118H219.858824c-69.270588 0-126.494118 57.223529-126.494118 126.494118V676.141176C93.364706 745.411765 150.588235 802.635294 219.858824 802.635294h394.541176c12.047059 0 21.082353 12.047059 21.082353 21.082353 0 12.047059-12.047059 21.082353-21.082353 21.082353H219.858824z m12.047058-755.952941c-3.011765 0-6.023529 0-6.023529 3.011765-3.011765 3.011765-6.023529 6.023529-6.023529 12.047058v3.011765l15.058823 60.235294c15.058824 51.2 27.105882 102.4 42.164706 153.6 3.011765 9.035294 6.023529 18.070588 15.058823 24.094118 81.317647 81.317647 162.635294 162.635294 246.964706 243.952941L632.470588 682.164706c12.047059 12.047059 18.070588 12.047059 30.117647 0l150.588236-144.564706c6.023529-6.023529 12.047059-12.047059 12.047058-18.070588 0-6.023529-3.011765-12.047059-12.047058-18.070588L466.823529 161.129412c-6.023529-6.023529-12.047059-9.035294-18.070588-12.047059l-210.823529-57.223529s-3.011765-3.011765-6.02353-3.011765zM644.517647 667.105882l-93.364706-93.364706c-81.317647-81.317647-162.635294-162.635294-246.964706-243.952941-3.011765-6.023529-6.023529-9.035294-6.023529-15.058823-15.058824-51.2-27.105882-102.4-42.164706-153.6l-12.047059-42.164706 201.788235 54.211765c3.011765 0 6.023529 3.011765 9.035295 6.023529l340.329411 340.329412 3.011765 3.011764-3.011765 3.011765-150.588235 141.552941zM310.211765 170.164706c-3.011765 0-6.023529 0-9.035294 3.011765-3.011765 3.011765-6.023529 6.023529-6.02353 12.047058l6.02353 21.082353c3.011765 15.058824 9.035294 30.117647 12.047058 42.164706 3.011765 15.058824 12.047059 27.105882 24.094118 39.152941l195.764706 195.764706 84.329412 84.329412 15.058823 15.058824c6.023529 3.011765 9.035294 9.035294 15.058824 12.047058 3.011765 3.011765 12.047059 12.047059 24.094117 0 12.047059-9.035294 21.082353-21.082353 30.117647-30.117647l21.082353-21.082353c3.011765-3.011765 6.023529-9.035294 6.02353-12.047058 0-6.023529-3.011765-12.047059-6.02353-15.058824L620.423529 414.117647l-63.247058-60.235294-150.588236-150.588235c-6.023529-6.023529-12.047059-9.035294-21.082353-12.047059-15.058824-3.011765-30.117647-9.035294-45.17647-12.047059l-21.082353-6.023529c-3.011765 0-6.023529-3.011765-9.035294-3.011765z m0 24.094118l6.023529-9.035295-6.023529 9.035295c3.011765 0 3.011765 0 0 0zM662.588235 579.764706c-3.011765-3.011765-9.035294-6.023529-12.047059-12.047059l-15.058823-15.058823-84.329412-84.329412c-66.258824-66.258824-132.517647-132.517647-198.77647-195.764706-9.035294-9.035294-15.058824-18.070588-18.070589-30.117647-3.011765-15.058824-6.023529-30.117647-12.047058-45.176471v-3.011764l12.047058 3.011764c15.058824 3.011765 30.117647 9.035294 45.176471 12.047059 3.011765 0 6.023529 3.011765 9.035294 6.023529l150.588235 150.588236 66.258824 66.258823 102.4 102.4-18.070588 18.070589-27.105883 27.105882z m198.776471-21.082353c-3.011765 0-9.035294 3.011765-12.047059 6.023529-33.129412 33.129412-69.270588 66.258824-102.4 99.388236-18.070588 18.070588-36.141176 33.129412-54.211765 51.2-3.011765 3.011765-6.023529 6.023529-6.023529 15.058823 0 6.023529 3.011765 12.047059 6.023529 15.058824l39.152942 39.152941 45.17647 45.17647c24.094118 24.094118 54.211765 36.141176 90.352941 36.141177 66.258824 0 120.470588-51.2 126.494118-117.458824v-12.047058c0-36.141176-12.047059-66.258824-36.141177-90.352942l-42.164705-42.164705c-12.047059-9.035294-27.105882-24.094118-42.164706-36.141177-3.011765-3.011765-6.023529-9.035294-12.047059-9.035294z m-150.588235 171.670588c18.070588-18.070588 33.129412-33.129412 51.2-48.188235 33.129412-33.129412 66.258824-66.258824 99.388235-96.376471L900.517647 624.941176l42.164706 42.164706c18.070588 18.070588 30.117647 45.176471 30.117647 75.294118v9.035294c-6.023529 54.211765-51.2 96.376471-105.411765 96.376471-27.105882 0-51.2-9.035294-72.282353-30.117647l-45.17647-45.176471-39.152941-42.164706z m150.588235-90.352941c-3.011765 0-6.023529 3.011765-9.035294 6.023529l-51.2 51.2-27.105883 24.094118c-3.011765 3.011765-6.023529 6.023529-6.023529 12.047059 0 3.011765 3.011765 9.035294 6.023529 12.047059L813.176471 784.564706c15.058824 12.047059 30.117647 21.082353 48.188235 21.082353 36.141176 0 66.258824-27.105882 69.270588-63.247059v-6.023529c0-21.082353-6.023529-36.141176-21.082353-48.188236l-42.164706-42.164706c0-3.011765-3.011765-6.023529-6.023529-6.023529z m-69.270588 90.352941l21.082353-18.070588 45.17647-45.176471 36.141177 36.141177c9.035294 9.035294 12.047059 18.070588 12.047058 33.129412v3.011764c-3.011765 24.094118-21.082353 42.164706-48.188235 42.164706-12.047059 0-24.094118-6.023529-33.129412-15.058823l-33.129411-36.141177z"  horiz-adv-x="1024" />

    
    <glyph glyph-name="yindaopai" unicode="&#58899;" d="M875.693 653.41c0-33.348 148.307-105.165 148.115-131.409 0-5.696-10.05-16.45-16.77-16.45H536.387v-129.808l29.828 1.152 228.316 7.041c9.666 0.32 130.769-78.986 131.793-108.75 0.896-24.515-114.959-114.254-124.624-114.51l-265.313-8.193v-256.096c0-13.442-10.881-24.387-24.387-24.387-13.442 0-24.387 10.945-24.387 24.387v254.56l-344.3-10.69c-5.312-0.191-14.977 3.841-15.105 8.13-0.704 19.138 113.422 85.002 112.718 105.613-0.896 24.899-118.799 75.017-119.375 94.604-0.128 4.288 7.745 14.721 12.994 14.85l353.068 10.56V505.552h-323.88C151.378 505.551 0 613.661 0 653.41 0 686.246 151.379 798.452 163.732 798.452h323.945V871.613C487.613 885.055 498.558 896 512 896s24.387-10.945 24.387-24.387v-73.161h470.715c6.72 0 16.898-10.882 16.962-16.642 0-25.54-148.37-100.813-148.37-128.4zM232.285 324.345c-4.609-0.128-6.145 1.28-6.465-2.433-0.64-8.257 65.928-45.445 66.697-67.336 0.64-17.986-58.76-59.848-58.504-67.977 0.128-3.776 0.576-3.328 5.249-3.136l248.351 7.745 78.602 2.496 213.338 6.657c8.514 0.256 90.38 51.975 89.612 73.417-0.96 25.987-88.971 67.785-97.357 67.529l-205.593-6.465-78.602-2.496-255.328-8.001z m659.923 428.277H190.744c-10.754 0-126.608-70.6-126.608-99.34 0-34.82 119.119-99.789 129.936-99.789h698.136c5.888 0 36.036-2.88 36.548 2.112 1.216 11.01-106.637 69.513-106.637 98.7 0 24.132 111.502 85.131 111.502 96.077 0.064 5.056-35.46 2.24-41.413 2.24z"  horiz-adv-x="1025" />

    
    <glyph glyph-name="youxi" unicode="&#59006;" d="M152.704 64h-2.688c-31.616 0.832-55.424 18.368-70.848 52.288-15.552 34.432-17.664 70.656-18.496 101.824v8.96C62.08 299.2 75.52 371.264 101.76 447.104c22.528 65.344 49.856 118.72 83.648 163.2 28.416 37.632 56.96 62.592 89.728 78.272 38.336 18.496 72.768 20.16 105.792 5.376 12.992-5.888 26.048-11.2 39.104-16.448 9.92-4.032 19.776-8 29.568-12.16 43.136-18.496 87.232-17.6 132.608 2.688 8 3.52 16.064 6.72 24.192 10.112 10.944 4.544 21.952 9.152 32.768 14.208 38.592 18.048 78.208 15.296 121.088-8.576 35.584-19.84 65.792-49.856 95.104-94.464 40.448-60.864 70.016-132.864 90.56-219.84 13.696-57.984 19.2-112.512 16.96-166.656-1.472-33.024-7.04-59.392-17.536-83.136-19.584-44.288-51.456-53.568-74.752-53.568-8.512 0-17.664 1.216-27.2 3.584-23.808 5.824-46.656 17.216-71.808 35.712-16.576 12.288-32.832 24.832-49.152 37.376-16.32 12.608-32.704 25.216-49.28 37.504-31.168 23.04-69.248 47.936-114.688 57.344-71.68 14.592-136.768 0.128-192.256-42.944-19.968-15.488-39.04-33.216-57.472-50.368-8.448-7.808-16.896-15.616-25.408-23.296-24.576-22.016-55.168-45.44-95.872-53.248-12.672-2.624-24-3.776-34.752-3.776z m182.784 612.224c-15.04 0-30.848-4.096-48.32-12.608-28.736-13.76-54.08-36.032-79.744-70.016-32-42.176-58.048-93.056-79.616-155.584-25.216-73.152-38.144-142.272-39.488-211.584v-7.488c0.896-35.52 3.968-64.512 16-91.328 11.072-24.384 25.408-35.52 46.4-36.032l2.048-13.824v13.824c8.832 0 18.752 1.088 29.568 3.072 33.984 6.592 60.8 27.264 82.56 46.72a1716.378 1716.378 0 0 1 25.024 22.976c18.944 17.536 38.464 35.712 59.392 51.968 61.824 48 134.848 64.32 214.656 48.192 50.688-10.56 91.904-37.248 125.504-62.144 16.768-12.416 33.28-25.28 49.792-37.888 16.128-12.48 32.256-24.896 48.64-36.992 22.08-16.32 41.792-26.24 61.952-31.232 7.424-1.728 14.336-2.688 20.608-2.688 22.656 0 38.336 11.776 49.536 37.12 9.088 20.48 13.952 43.776 15.168 73.152 2.176 51.584-3.136 103.68-16.192 159.232-19.776 83.648-48.128 152.768-86.72 210.944-26.816 40.768-53.888 67.904-85.504 85.504-35.2 19.648-65.28 22.08-96 7.744-11.072-5.248-22.528-9.984-33.92-14.656-7.936-3.328-15.744-6.592-23.488-10.048-52.224-23.296-104.512-24.32-154.688-2.752a809.177 809.177 0 0 1-28.928 11.968c-13.504 5.504-26.944 10.944-40.192 16.96-11.2 5.056-22.336 7.488-34.048 7.488z m390.336-357.76c-11.392 0-21.632 4.288-29.248 12.032-7.616 7.616-11.712 17.792-11.584 28.48 0.448 22.08 18.624 39.808 40.576 39.808h0.064c22.016 0 39.936-18.048 39.936-40.256 0.128-22.08-17.344-39.808-39.744-40.064z m-0.128 66.56v-13.76c-6.976 0-12.928-5.824-13.056-12.672-0.064-3.264 1.28-6.336 3.584-8.768 2.496-2.432 5.76-3.84 9.216-3.84 7.36 0.064 12.736 5.504 12.736 12.48 0 6.912-5.632 12.736-12.352 12.736v13.824z m-398.592-0.064c-21.76 0-41.92 8.384-57.088 23.552-15.04 15.04-23.296 35.072-23.232 56.32 0.128 43.84 35.84 79.744 79.616 80.256h0.832c43.776 0 79.616-35.904 80-79.744 0.128-21.504-8.064-41.664-23.04-56.832-15.168-15.232-35.392-23.552-57.088-23.552z m0.128 146.304l-0.512-13.76c-28.736-0.256-52.224-24-52.288-52.736 0-13.888 5.312-26.944 15.168-36.736 20.16-20.16 55.552-19.648 75.008 0 9.792 9.792 15.104 22.976 15.04 36.992-0.192 28.864-23.744 52.48-52.416 52.48v13.76z m477.696-132.992c-22.464 0.128-40.32 18.112-40.192 40.192 0 22.016 18.112 40 40.32 40h1.344c21.76-0.576 39.296-18.944 38.912-41.088-0.384-21.952-18.176-39.104-40.384-39.104z m0.128 66.432v-13.824c-6.784 0-12.736-5.888-12.736-12.544-0.064-6.912 5.504-12.48 12.544-12.48 7.36 0 12.736 4.992 12.864 12.032 0.128 6.976-5.312 12.8-12.16 12.992l-0.512 13.824z m-160.832-66.432c-11.2 0-21.504 4.224-29.184 12.096-7.552 7.808-11.648 17.92-11.328 28.736 0.576 21.696 18.752 39.296 40.576 39.296h0.128c10.624 0 20.608-4.16 28.16-11.776 7.616-7.68 11.84-17.856 11.712-28.672-0.064-22.272-17.728-39.616-40.064-39.68z m0.064 52.608c-6.848 0-12.8-5.76-12.992-12.48-0.064-3.2 1.152-6.336 3.52-8.768 7.488-7.616 21.888-1.92 21.952 8.448 0 3.52-1.28 6.656-3.776 9.152-2.304 2.368-5.376 3.712-8.576 3.712h-0.128z m80.96 26.944c-22.08 0.128-40.128 18.048-40.256 40.064 0 10.624 4.16 20.672 11.84 28.288 7.744 7.808 17.92 12.032 28.608 12.032h0.96c21.888-0.512 39.552-18.816 39.232-40.96-0.192-22.144-17.984-39.424-40.384-39.424z m0.128 66.624v-13.824c-3.328 0-6.528-1.344-9.024-3.904-2.496-2.496-3.84-5.632-3.84-8.832 0-6.848 5.76-12.48 12.736-12.48 7.168 0 12.672 5.184 12.736 12.032 0 7.04-5.44 12.928-12.288 13.12l-0.32 13.888z"  horiz-adv-x="1024" />

    
    <glyph glyph-name="xuexi" unicode="&#58948;" d="M511.95 649.004c-132.69 0-240.654-107.961-240.654-240.666 0-54.365 17.81-105.703 51.532-148.454 24.974-31.686 48.913-66.694 69.167-101.233l0.326-0.558V17.17c0-13.167 10.689-23.844 23.847-23.844h26.682c1.491-33.197 28.685-59.727 62.254-59.727h13.713c33.577 0 60.744 26.53 62.239 59.727h26.678c13.16 0 23.848 10.677 23.848 23.844V158.055l0.33 0.596c20.547 35.006 43.814 69.069 69.187 101.222 33.717 42.748 51.505 94.089 51.505 148.465-0.001 132.705-107.947 240.666-240.654 240.666z m71.949-607.99h-143.89v34.945h143.89v-34.946z m0 70.712h-143.89v35.143h143.89v-35.143zM663.667 289.4a947.794 947.794 0 0 1-65.85-94.847h-67.984V335.077l105.662 105.672c6.978 6.983 6.978 18.3 0 25.282-6.994 6.985-18.304 6.985-25.286 0l-98.26-98.263-98.258 98.263c-6.978 6.985-18.293 6.985-25.282 0-6.982-6.982-6.982-18.3 0-25.282l105.658-105.672v-140.525h-67.98c-19.75 32.514-42.33 65.089-65.822 94.856-27.016 34.263-41.282 75.382-41.282 118.93 0 106.417 86.56 192.982 192.966 192.982 106.41 0 192.97-86.565 192.97-192.982 0-43.548-14.244-84.682-41.252-118.938zM511.957 690.499c18.137 0 32.799 14.68 32.799 32.786V799.568c0 18.114-14.662 32.786-32.799 32.786-18.118 0-32.78-14.673-32.78-32.786v-76.283c0-18.106 14.662-32.786 32.78-32.786zM296.786 642.724c6.44-8.842 16.434-13.532 26.591-13.532 6.659 0 13.41 2.034 19.234 6.26 14.638 10.633 17.906 31.137 7.274 45.788l-44.83 61.734c-10.662 14.635-31.125 17.935-45.814 7.266-14.635-10.624-17.901-31.133-7.266-45.782l44.811-61.734zM216.942 532.737l-72.564 23.6c-17.386 5.6-35.723-3.825-41.332-21.054-5.612-17.208 3.813-35.717 21.032-41.322l72.567-23.597c3.388-1.089 6.776-1.62 10.142-1.62 13.83 0 26.67 8.807 31.189 22.671 5.606 17.212-3.812 35.721-21.034 41.322zM899.813 310.842l-72.549 23.562c-17.237 5.563-35.708-3.836-41.309-21.047-5.604-17.23 3.84-35.724 21.063-41.324l72.564-23.567a32.724 32.724 0 0 1 10.115-1.613c13.831 0 26.67 8.822 31.19 22.668 5.593 17.227-3.84 35.717-21.074 41.32zM196.672 334.405l-72.593-23.533c-17.22-5.589-26.67-24.075-21.059-41.305 4.481-13.865 17.344-22.687 31.174-22.687 3.34 0 6.765 0.531 10.131 1.62l72.575 23.533c17.238 5.59 26.682 24.082 21.078 41.306-5.567 17.215-23.924 26.63-41.306 21.066zM817.145 468.745c3.365 0 6.754 0.531 10.12 1.62l72.548 23.563c17.233 5.604 26.666 24.097 21.074 41.32-5.612 17.216-24.178 26.622-41.306 21.055l-72.564-23.566c-17.222-5.601-26.666-24.098-21.063-41.322 4.51-13.848 17.36-22.67 31.19-22.67zM718.879 742.975l-44.83-61.734c-10.628-14.65-7.365-35.155 7.273-45.787a32.67 32.67 0 0 1 19.234-6.26c10.158 0 20.152 4.69 26.576 13.53l44.83 61.735c10.632 14.65 7.369 35.158-7.27 45.782-14.73 10.696-35.151 7.403-45.813-7.266z"  horiz-adv-x="1024" />

    
    <glyph glyph-name="lixian" unicode="&#58959;" d="M931.54816 55.2064c0.192 1.19808 0.29184 2.42432 0.29184 3.6736 0 12.72832-10.30656 23.04-23.02208 23.04h-245.79584c-12.7232 0-23.02208-10.3168-23.02208-23.04 0-12.72832 10.30656-23.04 23.02208-23.04h185.35424l-25.59488-21.4784c-9.75872-8.18432-11.03872-22.72256-2.85696-32.47104 8.1792-9.74848 22.70976-11.0208 32.47616-2.82624l70.92736 59.51488a23.00928 23.00928 0 0 1 8.22016 16.6272z m-291.25632 109.0048a23.23712 23.23712 0 0 1-0.29184-3.67104c0-12.72576 10.30656-23.04 23.02208-23.04h245.79584c12.7232 0 23.02208 10.3168 23.02208 23.04 0 12.72832-10.30656 23.04-23.02208 23.04h-185.35424l25.59488 21.4784c9.75872 8.18688 11.03872 22.72256 2.85696 32.4736-8.1792 9.74592-22.70976 11.0208-32.47616 2.82368l-70.92736-59.51488a23.00928 23.00928 0 0 1-8.22016-16.6272z m-25.216 190.12608c-93.632-42.4192-158.69952-136.12288-158.69952-244.9024 0-56.41472 17.50016-108.77696 47.4112-152.03328h-122.8032c-177.3952 0-321.17504 0.09984-321.17504 69.69344v19.87072c0 170.37312 143.77984 308.43392 321.1776 308.43392h207.24224c9.03936 0 17.99424-0.3584 26.84416-1.0624z m-130.51904 49.02144c-137.1392 0-248.31232 110.28224-248.31232 246.32064C236.24448 785.7152 347.4176 896 484.5568 896s248.31232-110.28224 248.31232-246.3232c0-136.0384-111.17312-246.31808-248.31232-246.31808zM784.64-125.44c-129.36704 0-234.24 104.87296-234.24 234.24s104.87296 234.24 234.24 234.24 234.24-104.87296 234.24-234.24-104.87296-234.24-234.24-234.24z"  horiz-adv-x="1024" />

    
    <glyph glyph-name="quanshenfangsong" unicode="&#58881;" d="M809.5 377.7c8-11 12.3-22.6 12.3-34.6 0-69.3-142.8-125.4-318.9-125.4S184.1 273.8 184.1 343c0 12 4.3 23.6 12.3 34.6-32.7-21.7-51.6-47.2-51.6-74.5 0-79.5 160.3-144 358.1-144S861 223.6 861 303.1c0.1 27.3-18.8 52.8-51.5 74.6zM498.5 436.7c-111.7 164.6-321.3 146-321.3 146 289.2-52.9 262.5-325.2 262.5-325.2h124.4c8.9 306.1 260.6 320.3 260.6 320.3C621 609.1 498.5 436.7 498.5 436.7zM503 619.4m-89.6 0a89.6 89.6 0 1 1 179.2 0 89.6 89.6 0 1 1-179.2 0Z"  horiz-adv-x="1024" />

    
    <glyph glyph-name="xingming" unicode="&#58889;" d="M600.421 11.072h382.171v-63.686H600.421z m-37.158 130.06h382.171v-63.686H563.263zM737.408 565.892h-31.842v-0.287c0-52.678-21.392-100.357-55.962-134.83-34.454-34.577-82.113-55.968-134.769-55.968h-0.643c-52.678 0-100.357 21.392-134.83 55.962-34.577 34.454-55.968 82.113-55.968 134.769v0.375 0.268c0 52.678 21.392 100.357 55.962 134.83 34.454 34.577 82.113 55.968 134.769 55.968h0.618c52.685 0 100.373-21.391 134.855-55.962 34.577-34.454 55.968-82.113 55.968-134.769v-0.375l63.686 0.019C769.246 706.614 655.163 820.693 514.44 820.693c-140.729 0-254.812-114.084-254.812-254.812v-0.016c0.006-140.722 114.089-254.8 254.812-254.8 140.729 0 254.812 114.084 254.812 254.812v0.016l-31.842-0.001zM895.01 211.405l-45.22-45.22c-41.198 47.296-92.477 84.717-150.586 109.076l105.028-64.48 45.22 45.22c0.31-0.31 0.96-0.622 1.274-0.96 15.95-13.377 30.598-28.025 44.287-43.636zM658.707 355.689c72.283-19.74 137.579-54.126 190.775-99.686l-45.22-45.22c-74.207 61.791-176.436 100.336-289.5 100.336h-0.31c-115.92 0-219.761-40.128-294.278-104.155-74.857-64.336-119.425-150.956-119.764-246.203 0-4.468 0-8.908 0.65-13.377H37.318c-0.31 4.468-0.31 8.908-0.31 13.377-0.31 115.92 54.779 220.383 141.398 294.278 53.504 45.871 119.114 80.57 192.047 100.646 42.929 12.139 92.23 19.118 143.163 19.118h1.091c50.026 0 98.443-6.703 143.999-19.116z"  horiz-adv-x="1024" />

    
    <glyph glyph-name="jilu" unicode="&#58904;" d="M230.4 640h563.2c14.08 0 25.6 11.52 25.6 25.6s-11.52 25.6-25.6 25.6H230.4c-14.08 0-25.6-11.52-25.6-25.6s11.52-25.6 25.6-25.6zM230.4 486.4h563.2c14.08 0 25.6 11.52 25.6 25.6s-11.52 25.6-25.6 25.6H230.4c-14.08 0-25.6-11.52-25.6-25.6s11.52-25.6 25.6-25.6zM571.1728 104.3696L860.8016 394l72.4064-72.4064-289.6288-289.6288zM1005.6 466.4c-20 20-52.48 20-72.48 0l-36.16-36.16 72.48-72.48 36.16 36.16c20 20.16 20 52.48 0 72.48zM532-24.48l92.96 37.92-72.48 72.48-37.92-92.96c-2.56-4.8-1.92-11.04 2.24-15.04 4.16-4.32 10.24-5.12 15.2-2.4zM921.6-25.76c0-28.16-22.88-51.04-51.04-51.04H153.44C125.28-76.8 102.4-53.92 102.4-25.76V793.76C102.4 821.92 125.28 844.8 153.44 844.8h717.12c28.16 0 51.04-22.88 51.04-51.04v-194.08l51.2 51.2V793.6c0 56.64-45.92 102.4-102.4 102.4H153.6C97.12 896 51.2 850.08 51.2 793.6v-819.2c0-56.64 45.92-102.4 102.4-102.4h716.8c56.64 0 102.4 45.92 102.4 102.4V216.48l-51.2-51.2v-191.04zM230.4 332.8h424.32l51.2 51.2H230.4c-14.08 0-25.6-11.52-25.6-25.6s11.52-25.6 25.6-25.6zM230.4 179.2h270.72l51.2 51.2H230.4c-14.08 0-25.6-11.52-25.6-25.6s11.52-25.6 25.6-25.6z"  horiz-adv-x="1024" />

    
    <glyph glyph-name="ganhuo" unicode="&#58882;" d="M511.949858 649.00356c-132.689045 0-240.653989-107.960851-240.653989-240.665245 0-54.365188 17.810644-105.703437 51.531654-148.4541 24.974811-31.686676 48.913013-66.693981 69.167313-101.233636l0.326435-0.557702 0-140.922566c0-13.166881 10.688433-23.844058 23.847128-23.844058l26.681686 0c1.490957-33.197076 28.685319-59.727313 62.253856-59.727313l13.713326 0c33.576723 0 60.743456 26.530236 62.238506 59.727313l26.678616 0c13.158694 0 23.847128 10.677177 23.847128 23.844058L631.581516 158.05501500000003l0.330528 0.595564c20.546965 35.006282 43.813878 69.069075 69.186755 101.222379 33.716916 42.747593 51.505048 94.088912 51.505048 148.465356C752.602823 541.0427090000001 644.657322 649.00356 511.949858 649.00356zM583.898517 41.01334499999996L440.008362 41.01334499999996l0 34.945907 143.890154 0L583.898517 41.01334499999996zM583.898517 111.72585000000004L440.008362 111.72585000000004l0 35.143405 143.890154 0L583.898517 111.72585000000004zM663.667282 289.40045799999996c-23.86657-30.248931-45.964868-62.102407-65.850777-94.847182l-67.983347 0L529.833157 335.07675400000005l105.661482 105.672738c6.977925 6.982018 6.977925 18.299785 0 25.281803-6.993275 6.985088-18.303878 6.985088-25.285896 0l-98.258884-98.262978-98.258884 98.262978c-6.977925 6.985088-18.292622 6.985088-25.281803 0-6.982018-6.982018-6.982018-18.299785 0-25.281803L494.066559 335.07675400000005l0-140.5245-67.980277 0c-19.74981 32.513508-42.330084 65.088414-65.821101 94.855368-27.016307 34.263361-41.282219 75.382874-41.282219 118.930693 0 106.416681 86.560448 192.981223 192.965873 192.981223 106.409518 0 192.969966-86.564541 192.969966-192.981223C704.918801 364.79049599999996 690.675402 323.65563299999997 663.667282 289.40045799999996zM511.957021 690.4986260000001c18.137079 0 32.79901 14.680351 32.79901 32.786731L544.756031 799.567717c0 18.114566-14.661931 32.786731-32.79901 32.786731-18.117636 0-32.779567-14.673188-32.779567-32.786731l0-76.282361C479.177454 705.178977 493.839385 690.4986260000001 511.957021 690.4986260000001zM296.786427 642.723529c6.438643-8.841366 16.433274-13.531178 26.590612-13.531178 6.658653 0 13.409404 2.033309 19.234063 6.260587 14.638395 10.632151 17.905812 31.136138 7.27366 45.786813l-44.830021 61.734016c-10.661827 14.635325-31.124881 17.935488-45.813419 7.266497-14.635325-10.623965-17.901719-31.133068-7.266497-45.782719L296.786427 642.723529zM216.941937 532.736533l-72.563666 23.600511c-17.385972 5.600555-35.723619-3.825119-41.332361-21.054525-5.611811-17.207917 3.812839-35.716456 21.032012-41.321104l72.566736-23.597441c3.388167-1.088798 6.776334-1.619894 10.141988-1.619894 13.829983 0 26.670429 8.806573 31.18935 22.671349C243.581668 508.627439 234.164181 527.135978 216.941937 532.736533zM899.812583 310.84179300000005l-72.548316 23.562649c-17.237593 5.562692-35.70827-3.836375-41.308825-21.047362-5.604648-17.23043 3.839445-35.723619 21.062711-41.324174l72.563666-23.566742c3.361561-1.088798 6.753821-1.612731 10.115382-1.612731 13.831007 0 26.670429 8.821923 31.18935 22.667256C926.479943 286.74804900000004 917.047106 305.23816899999997 899.812583 310.84179300000005zM196.672288 334.40546500000005l-72.593342-23.532973c-17.219173-5.589298-26.670429-24.075325-21.058618-41.305755 4.481058-13.864776 17.344017-22.686698 31.174-22.686698 3.339048 0 6.765077 0.531096 10.130731 1.619894l72.574922 23.532973c17.237593 5.589298 26.681686 24.082488 21.078061 41.305755C232.411257 330.55374099999995 214.054167 339.968158 196.672288 334.40546500000005zM817.144792 468.745103c3.365654 0 6.753821 0.531096 10.119475 1.619894l72.548316 23.562649c17.2335 5.604648 26.666336 24.097838 21.073968 41.321104-5.611811 17.21508-24.177656 26.621311-41.305755 21.054525l-72.563666-23.566742c-17.222243-5.600555-26.666336-24.097838-21.062711-41.321104C790.463106 477.567026 803.314809 468.745103 817.144792 468.745103zM718.878744 742.974791l-44.830021-61.734016c-10.628058-14.649652-7.364735-35.154661 7.27366-45.786813 5.824659-4.227278 12.574387-6.260587 19.234063-6.260587 10.157337 0 20.151969 4.689812 26.575262 13.531178l44.830021 61.734016c10.632151 14.649652 7.368828 35.158754-7.269567 45.782719C749.96167 760.936885 729.540571 757.643885 718.878744 742.974791z"  horiz-adv-x="1024" />

    
    <glyph glyph-name="quanshenfangsong1" unicode="&#58883;" d="M809.5 377.7c8-11 12.3-22.6 12.3-34.6 0-69.3-142.8-125.4-318.9-125.4S184.1 273.8 184.1 343c0 12 4.3 23.6 12.3 34.6-32.7-21.7-51.6-47.2-51.6-74.5 0-79.5 160.3-144 358.1-144S861 223.6 861 303.1c0.1 27.3-18.8 52.8-51.5 74.6zM498.5 436.7c-111.7 164.6-321.3 146-321.3 146 289.2-52.9 262.5-325.2 262.5-325.2h124.4c8.9 306.1 260.6 320.3 260.6 320.3C621 609.1 498.5 436.7 498.5 436.7zM503 619.4m-89.6 0a89.6 89.6 0 1 1 179.2 0 89.6 89.6 0 1 1-179.2 0Z"  horiz-adv-x="1024" />

    
    <glyph glyph-name="baogao" unicode="&#59291;" d="M297.48736 575.0784h428.98432V638.11584H297.48736V575.0784z m0-148.1984h428.98432V489.51808H297.48736v-63.03744 0.39936z m0-297.28768h236.42624v62.63808H297.48736v-63.03744 0.39936z m0 148.1984h236.42624v63.03744H297.48736v-63.03744z m514.34496-124.38528h-99.68128c-41.73824 0-75.59168-33.8432-75.59168-75.58656v-99.7888l175.27296 175.37536z m83.48672 7.99744c0.04096-0.62464 0.04096-1.2544 0-1.87392a15.41632 15.41632 0 0 0-3.74784-7.01952l-258.94912-258.85184a15.0016 15.0016 0 0 0-7.12192-3.75808H240.1792c-61.58336 0.05632-111.60576 49.7664-112.04096 111.34976V766.05952c0.05632 61.85472 50.18624 111.98464 112.04096 112.04096h543.40096a112.18944 112.18944 0 0 0 79.32928-32.77312 112.14848 112.14848 0 0 0 32.90112-79.26272V163.3792c0.06144-0.6912 0.06144-1.3824 0-2.0736l-0.49152 0.09728zM764.9024 815.06304H259.05152c-41.58464-0.05632-75.32032-33.69984-75.47904-75.2896V28.416c0.0512-41.66656 33.81248-75.42784 75.47904-75.47904h324.25984V88.7808c0 57.4976 63.24224 120.64256 120.64256 120.64256h136.43776V739.77344c-0.06144 41.67168-33.81248 75.42784-75.48928 75.48416v-0.19456z"  horiz-adv-x="1024" />

    
    <glyph glyph-name="wenzhang1" unicode="&#58886;" d="M690.0266666666666 824.96l-21.866666666666667 0-54.61333333333334 0L197.76 824.96c-36.16 0-65.49333333333333-27.946666666666665-65.49333333333333-62.400000000000006l0-763.4133333333334c0-34.34666666666667 29.333333333333332-62.400000000000006 65.49333333333333-62.400000000000006l623.36 0c36.16 0 65.49333333333333 27.946666666666665 65.49333333333333 62.400000000000006L886.6133333333335 605.3333333333334 690.0266666666666 824.96 690.0266666666666 824.96zM799.8933333333333 606.5066666666667L668.16 606.5066666666667 668.16 753.7066666666667 799.8933333333333 606.5066666666667 799.8933333333333 606.5066666666667zM808.5333333333333 4.053333333333285L211.62666666666667 4.053333333333285c-6.08 0-10.773333333333333 4.053333333333333-10.773333333333333 7.68L200.85333333333335 750.8266666666666c0 3.6266666666666665 4.586666666666666 7.68 10.773333333333333 7.68l405.65333333333336 0 0-161.06666666666666c0-29.65333333333333 24.10666666666667-53.65333333333333 53.65333333333333-53.65333333333333l148.26666666666665 0L819.2 11.733333333333348C819.2 8.106666666666683 814.6133333333335 4.053333333333285 808.5333333333333 4.053333333333285L808.5333333333333 4.053333333333285zM808.3199999999999 4.053333333333285M560 554.6666666666666c0-18.88-15.253333333333334-34.13333333333333-34.13333333333333-34.13333333333333L341.33333333333337 520.5333333333333c-18.88 0-34.13333333333333 15.253333333333334-34.13333333333333 34.13333333333333l0 0c0 18.88 15.253333333333334 34.13333333333333 34.13333333333333 34.13333333333333l184.53333333333333 0C544.64 588.8000000000001 560 573.5466666666666 560 554.6666666666666L560 554.6666666666666zM720.5333333333333 385.06666666666666c0-18.88-15.253333333333334-34.13333333333333-34.13333333333333-34.13333333333333l-342.4 0c-18.88 0-34.13333333333333 15.253333333333334-34.13333333333333 34.13333333333333l0 0c0 18.88 15.253333333333334 34.13333333333333 34.13333333333333 34.13333333333333l342.4 0C705.1733333333334 419.19999999999993 720.5333333333333 403.94666666666666 720.5333333333333 385.06666666666666L720.5333333333333 385.06666666666666zM720.5333333333333 215.4666666666667c0-18.88-15.253333333333334-34.13333333333333-34.13333333333333-34.13333333333333l-342.4 0c-18.88 0-34.13333333333333 15.253333333333334-34.13333333333333 34.13333333333333l0 0c0 18.88 15.253333333333334 34.13333333333333 34.13333333333333 34.13333333333333l342.4 0C705.1733333333334 249.60000000000002 720.5333333333333 234.24 720.5333333333333 215.4666666666667L720.5333333333333 215.4666666666667z"  horiz-adv-x="1024" />

    
    <glyph glyph-name="wendangguanli1" unicode="&#58908;" d="M833.2-0.1h-32c0-65.9-60.5-127.9-128.3-127.9H191.1c-68 0-128.3 62.2-128.3 127.9V640.2c0 65.9 55.5 127.1 123.3 127.1l37 0.8C223.1 834 283.6 896 351.4 896h395.4c17.7 0 34.4-7.8 45.8-21.3l154.5-184.8c9.1-10.8 14.2-24.5 14.2-38.7v-523.1c0.2-66-60.3-128.2-128.1-128.2zM223.9 135.1v573l-36-5c-33.7 0-61.2-30.4-61.2-63v-640.2c0-32.7 30.6-64.1 64.3-64.1h481.5c33.7 0 64.3 31.4 64.3 64.1H351.6c-68 0-127.7 69.7-127.7 135.2z m513 696.2v-95.9c0-33.3 30-95.3 64.1-95.3h96.3L736.9 831.3z m160.5-255.2h-96.3c-68.4 0-128.3 60.7-128.3 127.3 0 0-0.4 55.1 0 128.8H351.6c-33.7 0-59.1-30.4-59.1-63.2v-644.4c0-32.9 25.4-60.5 59.1-60.5h481.5c33.7 0 64.3 31.4 64.3 64.1V576.1zM736.9 223.7h-289c-17.7 0-32 14.4-32 32s14.4 32 32 32h288.9c17.7 0 32-14.4 32-32s-14.3-32-31.9-32z m0 159.8h-289c-17.7 0-32 14.4-32 32s14.4 32 32 32h288.9c17.7 0 32-14.4 32-32 0.1-17.7-14.3-32-31.9-32z"  horiz-adv-x="1024" />

    
    <glyph glyph-name="danganguanli2" unicode="&#58900;" d="M511.6 263.5c-8.9 0-17.4 3.2-24.1 9L135.2 510.2l-1.5 1.5c-14.4 14.4-14.4 37.7 0 52.1l1.8 1.8 352.4 223.5c6.7 5.6 15 8.7 23.8 8.7s17.2-3.1 23.8-8.7l352.4-223.5 1.8-1.8c14.4-14.4 14.3-37.8 0-52.1l-1.5-1.5-1.8-1.2-350.7-236.5c-6.7-5.8-15.2-9-24.1-9zM175.3 537.6l336.3-226.9 336.3 226.9-336.3 213.2-336.3-213.2zM511.6 112.1c-4.5 0-9 1.4-12.7 3.9L111.3 379.9c-10.1 7.1-12.7 21-5.8 31.2 7 10.2 20.8 12.9 31.1 6.1l375-255.2 374.9 255.3c10.3 6.9 24.2 4.1 31.1-6.1 7-10.2 4.4-24.1-5.8-31.2L524.3 116c-3.8-2.5-8.2-3.9-12.7-3.9zM511.6-29c-4.5 0-9 1.4-12.7 3.9L111.3 238.8c-10.3 7-13 21-6 31.3s21 13 31.3 6l374.9-255.3 374.9 255.3c10.3 6.7 24.1 4 31-6.2 6.9-10.2 4.4-24-5.6-31.1L524.3-25.1c-3.8-2.6-8.2-3.9-12.7-3.9z"  horiz-adv-x="1024" />

    
    </font>
</defs>
</svg>
